<svg xmlns="http://www.w3.org/2000/svg" width="36" height="33" viewBox="0 0 36 33" fill="none">
  <g filter="url(#filter0_dddd_337_3653)">
    <path d="M27.0447 4.31934H9.23983C6.2633 4.31934 3.85034 6.66984 3.85034 9.56934V25.0613C3.85034 27.9608 6.2633 30.3113 9.23983 30.3113H27.0447C30.0212 30.3113 32.4342 27.9608 32.4342 25.0613V9.56934C32.4342 6.66984 30.0212 4.31934 27.0447 4.31934Z" fill="url(#paint0_linear_337_3653)"/>
  </g>
  <path d="M32.4342 11.1323H3.85034V9.41934C3.85034 8.06673 4.40194 6.76953 5.38379 5.81309C6.36563 4.85666 7.69731 4.31934 9.08585 4.31934H27.1987C28.5872 4.31934 29.9189 4.85666 30.9007 5.81309C31.8826 6.76953 32.4342 8.06673 32.4342 9.41934V11.1323Z" fill="url(#paint1_linear_337_3653)"/>
  <path d="M32.4342 11.1323H3.85034V9.41934C3.85034 8.06673 4.40194 6.76953 5.38379 5.81309C6.36563 4.85666 7.69731 4.31934 9.08585 4.31934H27.1987C28.5872 4.31934 29.9189 4.85666 30.9007 5.81309C31.8826 6.76953 32.4342 8.06673 32.4342 9.41934V11.1323Z" fill="url(#paint2_linear_337_3653)"/>
  <path d="M32.4342 11.1323H3.85034V9.41934C3.85034 8.06673 4.40194 6.76953 5.38379 5.81309C6.36563 4.85666 7.69731 4.31934 9.08585 4.31934H27.1987C28.5872 4.31934 29.9189 4.85666 30.9007 5.81309C31.8826 6.76953 32.4342 8.06673 32.4342 9.41934V11.1323Z" fill="url(#paint3_radial_337_3653)"/>
  <path d="M32.4342 11.1323H3.85034V9.41934C3.85034 8.06673 4.40194 6.76953 5.38379 5.81309C6.36563 4.85666 7.69731 4.31934 9.08585 4.31934H27.1987C28.5872 4.31934 29.9189 4.85666 30.9007 5.81309C31.8826 6.76953 32.4342 8.06673 32.4342 9.41934V11.1323Z" fill="url(#paint4_linear_337_3653)"/>
  <g filter="url(#filter1_dd_337_3653)">
    <path d="M32.434 20.9443V25.2123C32.434 26.5649 31.8824 27.8621 30.9005 28.8186C29.9187 29.775 28.587 30.3123 27.1985 30.3123H22.7585L32.434 20.9443Z" fill="#D3CBDD"/>
  </g>
  <g filter="url(#filter2_ddd_337_3653)">
    <path d="M13.2847 13.9443H10.6105C10.5538 13.9443 10.5078 13.9891 10.5078 14.0443V16.6493C10.5078 16.7046 10.5538 16.7493 10.6105 16.7493H13.2847C13.3414 16.7493 13.3873 16.7046 13.3873 16.6493V14.0443C13.3873 13.9891 13.3414 13.9443 13.2847 13.9443Z" fill="#9896A1"/>
  </g>
  <g filter="url(#filter3_ddd_337_3653)">
    <path d="M19.4314 13.9443H16.7572C16.7005 13.9443 16.6545 13.9891 16.6545 14.0443V16.6493C16.6545 16.7046 16.7005 16.7493 16.7572 16.7493H19.4314C19.4881 16.7493 19.5341 16.7046 19.5341 16.6493V14.0443C19.5341 13.9891 19.4881 13.9443 19.4314 13.9443Z" fill="#9896A1"/>
  </g>
  <g filter="url(#filter4_ddd_337_3653)">
    <path d="M25.5784 13.9443H22.9042C22.8475 13.9443 22.8015 13.9891 22.8015 14.0443V16.6493C22.8015 16.7046 22.8475 16.7493 22.9042 16.7493H25.5784C25.6351 16.7493 25.681 16.7046 25.681 16.6493V14.0443C25.681 13.9891 25.6351 13.9443 25.5784 13.9443Z" fill="#9896A1"/>
  </g>
  <g filter="url(#filter5_ddd_337_3653)">
    <path d="M13.2847 18.9443H10.6105C10.5538 18.9443 10.5078 18.9891 10.5078 19.0443V21.6493C10.5078 21.7046 10.5538 21.7493 10.6105 21.7493H13.2847C13.3414 21.7493 13.3873 21.7046 13.3873 21.6493V19.0443C13.3873 18.9891 13.3414 18.9443 13.2847 18.9443Z" fill="#9896A1"/>
  </g>
  <g filter="url(#filter6_ddd_337_3653)">
    <path d="M13.2847 23.9443H10.6105C10.5538 23.9443 10.5078 23.9891 10.5078 24.0443V26.6493C10.5078 26.7046 10.5538 26.7493 10.6105 26.7493H13.2847C13.3414 26.7493 13.3873 26.7046 13.3873 26.6493V24.0443C13.3873 23.9891 13.3414 23.9443 13.2847 23.9443Z" fill="#9896A1"/>
  </g>
  <g filter="url(#filter7_ddd_337_3653)">
    <path d="M19.4314 18.9443H16.7572C16.7005 18.9443 16.6545 18.9891 16.6545 19.0443V21.6493C16.6545 21.7046 16.7005 21.7493 16.7572 21.7493H19.4314C19.4881 21.7493 19.5341 21.7046 19.5341 21.6493V19.0443C19.5341 18.9891 19.4881 18.9443 19.4314 18.9443Z" fill="#9896A1"/>
  </g>
  <g filter="url(#filter8_ddd_337_3653)">
    <path d="M19.4314 23.9443H16.7572C16.7005 23.9443 16.6545 23.9891 16.6545 24.0443V26.6493C16.6545 26.7046 16.7005 26.7493 16.7572 26.7493H19.4314C19.4881 26.7493 19.5341 26.7046 19.5341 26.6493V24.0443C19.5341 23.9891 19.4881 23.9443 19.4314 23.9443Z" fill="#9896A1"/>
  </g>
  <g filter="url(#filter9_ddd_337_3653)">
    <path d="M25.5784 18.9443H22.9042C22.8475 18.9443 22.8015 18.9891 22.8015 19.0443V21.6493C22.8015 21.7046 22.8475 21.7493 22.9042 21.7493H25.5784C25.6351 21.7493 25.681 21.7046 25.681 21.6493V19.0443C25.681 18.9891 25.6351 18.9443 25.5784 18.9443Z" fill="url(#paint5_linear_337_3653)"/>
  </g>
  <g filter="url(#filter10_ddd_337_3653)">
    <path d="M25.5784 23.9443H22.9042C22.8475 23.9443 22.8015 23.9891 22.8015 24.0443V26.6493C22.8015 26.7046 22.8475 26.7493 22.9042 26.7493H25.5784C25.6351 26.7493 25.681 26.7046 25.681 26.6493V24.0443C25.681 23.9891 25.6351 23.9443 25.5784 23.9443Z" fill="#9896A1"/>
  </g>
  <g filter="url(#filter11_d_337_3653)">
    <path d="M32.3367 21.1213C32.3833 21.0762 32.415 21.0187 32.428 20.9559C32.4409 20.8932 32.4344 20.8282 32.4093 20.769C32.3843 20.7099 32.3417 20.6594 32.2871 20.6238C32.2325 20.5883 32.1683 20.5693 32.1027 20.5693H30.9016C28.6554 20.5693 26.5012 21.4385 24.9129 22.9857C23.3247 24.5329 22.4324 26.6313 22.4324 28.8193V29.9893C22.4323 30.0533 22.4518 30.1159 22.4883 30.169C22.5248 30.2222 22.5767 30.2637 22.6374 30.2881C22.6981 30.3125 22.7648 30.3188 22.8292 30.3062C22.8936 30.2936 22.9527 30.2627 22.999 30.2173L32.3367 21.1213Z" fill="url(#paint6_radial_337_3653)"/>
    <path d="M32.3367 21.1213C32.3833 21.0762 32.415 21.0187 32.428 20.9559C32.4409 20.8932 32.4344 20.8282 32.4093 20.769C32.3843 20.7099 32.3417 20.6594 32.2871 20.6238C32.2325 20.5883 32.1683 20.5693 32.1027 20.5693H30.9016C28.6554 20.5693 26.5012 21.4385 24.9129 22.9857C23.3247 24.5329 22.4324 26.6313 22.4324 28.8193V29.9893C22.4323 30.0533 22.4518 30.1159 22.4883 30.169C22.5248 30.2222 22.5767 30.2637 22.6374 30.2881C22.6981 30.3125 22.7648 30.3188 22.8292 30.3062C22.8936 30.2936 22.9527 30.2627 22.999 30.2173L32.3367 21.1213Z" fill="url(#paint7_linear_337_3653)"/>
  </g>
  <g filter="url(#filter12_f_337_3653)">
    <path d="M31.3913 10.6104C31.3913 7.71035 30.1081 5.36035 26.0018 5.36035H15.5759" stroke="url(#paint8_radial_337_3653)" strokeWidth="1.5"/>
  </g>
  <g filter="url(#filter13_f_337_3653)">
    <path d="M22.653 4.31934C22.5072 4.69997 22.4328 5.10305 22.4334 5.50934C22.4334 7.09134 23.5482 8.42934 25.0922 8.73134C25.2791 8.7678 25.4732 8.73045 25.6318 8.62749C25.7905 8.52453 25.9006 8.36441 25.9381 8.18234C25.9755 8.00026 25.9372 7.81116 25.8315 7.65663C25.7258 7.5021 25.5614 7.3948 25.3745 7.35834C24.5204 7.19134 23.8706 6.44234 23.8706 5.50834C23.8706 5.04834 24.0245 4.63834 24.274 4.31934H22.653Z" fill="#3E7BC6"/>
  </g>
  <g filter="url(#filter14_f_337_3653)">
    <path d="M16.8742 4.31934C16.7284 4.69997 16.654 5.10305 16.6545 5.50934C16.6545 7.09134 17.7694 8.42934 19.3134 8.73134C19.5003 8.7678 19.6944 8.73045 19.853 8.62749C20.0117 8.52453 20.1218 8.36441 20.1593 8.18234C20.1967 8.00026 20.1583 7.81116 20.0527 7.65663C19.947 7.5021 19.7826 7.3948 19.5957 7.35834C18.7416 7.19134 18.0917 6.44234 18.0917 5.50834C18.0917 5.04834 18.2457 4.63834 18.4952 4.31934H16.8742Z" fill="#3E7BC6"/>
  </g>
  <g filter="url(#filter15_f_337_3653)">
    <path d="M11.5761 4.31934C11.4307 4.70009 11.3563 5.10309 11.3564 5.50934C11.3564 7.09134 12.4713 8.42934 14.0153 8.73134C14.1078 8.74939 14.2031 8.74952 14.2957 8.7317C14.3883 8.71388 14.4764 8.67847 14.5549 8.62749C14.6335 8.57651 14.701 8.51096 14.7535 8.43458C14.806 8.3582 14.8426 8.27249 14.8612 8.18234C14.8797 8.09218 14.8798 7.99936 14.8615 7.90916C14.8432 7.81896 14.8069 7.73315 14.7546 7.65663C14.7022 7.58012 14.6349 7.51439 14.5565 7.46321C14.4781 7.41203 14.3901 7.37639 14.2976 7.35834C13.4435 7.19134 12.7936 6.44234 12.7936 5.50834C12.7936 5.04834 12.9476 4.63834 13.1971 4.31934H11.5761Z" fill="#3E7BC6"/>
  </g>
  <g filter="url(#filter16_f_337_3653)">
    <path d="M7.55823 4.98234C7.41554 5.35234 6.38794 5.31534 6.38794 5.73234C6.38794 7.31434 7.4761 8.42934 9.01904 8.73134C9.11159 8.74946 9.20689 8.74965 9.29951 8.73189C9.39214 8.71413 9.48026 8.67878 9.55886 8.62785C9.63745 8.57691 9.70498 8.5114 9.75759 8.43504C9.81019 8.35869 9.84684 8.27299 9.86545 8.18284C9.88405 8.09268 9.88424 7.99984 9.86601 7.90962C9.84778 7.81939 9.81149 7.73355 9.75921 7.65699C9.70692 7.58043 9.63966 7.51465 9.56128 7.4634C9.4829 7.41216 9.39492 7.37646 9.30237 7.35834C8.44827 7.19134 7.79742 6.44234 7.79742 5.50834C7.79742 5.04834 7.95141 4.63834 8.20086 4.31934L7.55823 4.98234Z" fill="#324DAF"/>
  </g>
  <path d="M8.24799 5.277C8.24799 4.204 9.08464 3.4 10.0342 3.4C10.6686 3.4 11.2538 3.76 11.571 4.32H13.116C12.7166 2.994 11.5104 2 10.0342 2C8.21719 2 6.81079 3.504 6.81079 5.277C6.81079 6.86 7.92565 8.198 9.46961 8.5C9.56216 8.51806 9.65745 8.51818 9.75004 8.50036C9.84264 8.48254 9.93073 8.44713 10.0093 8.39616C10.0878 8.34518 10.1553 8.27963 10.2078 8.20325C10.2604 8.12687 10.297 8.04115 10.3155 7.951C10.334 7.86085 10.3342 7.76802 10.3159 7.67782C10.2976 7.58762 10.2612 7.50181 10.2089 7.4253C10.1566 7.34878 10.0893 7.28306 10.0109 7.23188C9.93245 7.18069 9.84446 7.14506 9.75191 7.127C8.89781 6.96 8.24799 6.211 8.24799 5.277Z" fill="url(#paint9_radial_337_3653)"/>
  <path d="M8.24799 5.277C8.24799 4.204 9.08464 3.4 10.0342 3.4C10.6686 3.4 11.2538 3.76 11.571 4.32H13.116C12.7166 2.994 11.5104 2 10.0342 2C8.21719 2 6.81079 3.504 6.81079 5.277C6.81079 6.86 7.92565 8.198 9.46961 8.5C9.56216 8.51806 9.65745 8.51818 9.75004 8.50036C9.84264 8.48254 9.93073 8.44713 10.0093 8.39616C10.0878 8.34518 10.1553 8.27963 10.2078 8.20325C10.2604 8.12687 10.297 8.04115 10.3155 7.951C10.334 7.86085 10.3342 7.76802 10.3159 7.67782C10.2976 7.58762 10.2612 7.50181 10.2089 7.4253C10.1566 7.34878 10.0893 7.28306 10.0109 7.23188C9.93245 7.18069 9.84446 7.14506 9.75191 7.127C8.89781 6.96 8.24799 6.211 8.24799 5.277Z" fill="url(#paint10_radial_337_3653)"/>
  <g filter="url(#filter17_f_337_3653)">
    <path d="M9.78818 7.59542C8.58915 7.35942 7.7063 6.31742 7.7063 5.05942C7.7063 3.63542 8.82731 2.48242 10.2111 2.48242C10.94 2.48242 11.5949 2.80242 12.0528 3.31342" stroke="#D8D7DE" strokeWidth="0.4" strokeLinecap="round"/>
  </g>
  <path d="M13.5986 5.277C13.5986 4.204 14.4352 3.4 15.3848 3.4C16.0203 3.4 16.6044 3.76 16.9216 4.32H18.4666C18.0672 2.994 16.862 2 15.3848 2C13.5678 2 12.1614 3.504 12.1614 5.277C12.1614 6.86 13.2762 8.198 14.8202 8.5C14.9127 8.51812 15.008 8.51831 15.1007 8.50055C15.1933 8.4828 15.2814 8.44744 15.36 8.39651C15.4386 8.34558 15.5061 8.28006 15.5587 8.20371C15.6113 8.12735 15.648 8.04165 15.6666 7.9515C15.6852 7.86135 15.6854 7.76851 15.6672 7.67828C15.6489 7.58806 15.6126 7.50221 15.5604 7.42565C15.5081 7.34909 15.4408 7.28331 15.3624 7.23207C15.2841 7.18082 15.1961 7.14512 15.1035 7.127C14.2494 6.96 13.5986 6.211 13.5986 5.277Z" fill="url(#paint11_radial_337_3653)"/>
  <path d="M13.5986 5.277C13.5986 4.204 14.4352 3.4 15.3848 3.4C16.0203 3.4 16.6044 3.76 16.9216 4.32H18.4666C18.0672 2.994 16.862 2 15.3848 2C13.5678 2 12.1614 3.504 12.1614 5.277C12.1614 6.86 13.2762 8.198 14.8202 8.5C14.9127 8.51812 15.008 8.51831 15.1007 8.50055C15.1933 8.4828 15.2814 8.44744 15.36 8.39651C15.4386 8.34558 15.5061 8.28006 15.5587 8.20371C15.6113 8.12735 15.648 8.04165 15.6666 7.9515C15.6852 7.86135 15.6854 7.76851 15.6672 7.67828C15.6489 7.58806 15.6126 7.50221 15.5604 7.42565C15.5081 7.34909 15.4408 7.28331 15.3624 7.23207C15.2841 7.18082 15.1961 7.14512 15.1035 7.127C14.2494 6.96 13.5986 6.211 13.5986 5.277Z" fill="url(#paint12_radial_337_3653)"/>
  <path d="M18.988 5.277C18.988 4.204 19.8246 3.4 20.7742 3.4C21.4097 3.4 21.9938 3.76 22.311 4.32H23.856C23.4566 2.994 22.2514 2 20.7742 2C18.9572 2 17.5508 3.504 17.5508 5.277C17.5508 6.86 18.6656 8.198 20.2096 8.5C20.3021 8.51812 20.3975 8.51831 20.4901 8.50055C20.5827 8.4828 20.6708 8.44744 20.7494 8.39651C20.828 8.34558 20.8955 8.28006 20.9481 8.20371C21.0008 8.12735 21.0374 8.04165 21.056 7.9515C21.0746 7.86135 21.0748 7.76851 21.0566 7.67828C21.0383 7.58806 21.0021 7.50221 20.9498 7.42565C20.8975 7.34909 20.8302 7.28331 20.7518 7.23207C20.6735 7.18082 20.5855 7.14512 20.4929 7.127C19.6388 6.96 18.988 6.211 18.988 5.277Z" fill="url(#paint13_radial_337_3653)"/>
  <path d="M18.988 5.277C18.988 4.204 19.8246 3.4 20.7742 3.4C21.4097 3.4 21.9938 3.76 22.311 4.32H23.856C23.4566 2.994 22.2514 2 20.7742 2C18.9572 2 17.5508 3.504 17.5508 5.277C17.5508 6.86 18.6656 8.198 20.2096 8.5C20.3021 8.51812 20.3975 8.51831 20.4901 8.50055C20.5827 8.4828 20.6708 8.44744 20.7494 8.39651C20.828 8.34558 20.8955 8.28006 20.9481 8.20371C21.0008 8.12735 21.0374 8.04165 21.056 7.9515C21.0746 7.86135 21.0748 7.76851 21.0566 7.67828C21.0383 7.58806 21.0021 7.50221 20.9498 7.42565C20.8975 7.34909 20.8302 7.28331 20.7518 7.23207C20.6735 7.18082 20.5855 7.14512 20.4929 7.127C19.6388 6.96 18.988 6.211 18.988 5.277Z" fill="url(#paint14_radial_337_3653)"/>
  <g filter="url(#filter18_f_337_3653)">
    <path d="M15.1383 7.59542C13.9392 7.36042 13.0564 6.31742 13.0564 5.05942C13.0564 3.63542 14.1774 2.48242 15.5612 2.48242C16.2901 2.48242 16.9461 2.80242 17.4039 3.31342" stroke="#D8D7DE" strokeWidth="0.4" strokeLinecap="round"/>
  </g>
  <g filter="url(#filter19_f_337_3653)">
    <path d="M20.5279 7.59542C19.3289 7.36042 18.446 6.31742 18.446 5.05942C18.446 3.63542 19.5671 2.48242 20.9509 2.48242C21.6797 2.48242 22.3357 2.80242 22.7936 3.31342" stroke="#D8D7DE" strokeWidth="0.4" strokeLinecap="round"/>
  </g>
  <path d="M24.3681 5.277C24.3681 4.204 25.2048 3.4 26.1543 3.4C26.798 3.4 27.3903 3.77 27.7045 4.343C28.2684 4.3955 28.8197 4.53737 29.3367 4.763C29.0965 3.223 27.7917 2 26.1543 2C24.3373 2 22.9309 3.504 22.9309 5.277C22.9309 6.86 24.0458 8.198 25.5897 8.5C25.7766 8.5366 25.9708 8.49937 26.1295 8.39651C26.2883 8.29365 26.3986 8.13357 26.4361 7.9515C26.4737 7.76943 26.4355 7.58028 26.3299 7.42565C26.2243 7.27103 26.06 7.1636 25.8731 7.127C25.019 6.96 24.3681 6.211 24.3681 5.277Z" fill="url(#paint15_radial_337_3653)"/>
  <path d="M24.3681 5.277C24.3681 4.204 25.2048 3.4 26.1543 3.4C26.798 3.4 27.3903 3.77 27.7045 4.343C28.2684 4.3955 28.8197 4.53737 29.3367 4.763C29.0965 3.223 27.7917 2 26.1543 2C24.3373 2 22.9309 3.504 22.9309 5.277C22.9309 6.86 24.0458 8.198 25.5897 8.5C25.7766 8.5366 25.9708 8.49937 26.1295 8.39651C26.2883 8.29365 26.3986 8.13357 26.4361 7.9515C26.4737 7.76943 26.4355 7.58028 26.3299 7.42565C26.2243 7.27103 26.06 7.1636 25.8731 7.127C25.019 6.96 24.3681 6.211 24.3681 5.277Z" fill="url(#paint16_radial_337_3653)"/>
  <g filter="url(#filter20_f_337_3653)">
    <path d="M25.9081 7.59542C24.709 7.36042 23.8262 6.31742 23.8262 5.05942C23.8262 3.63542 24.9472 2.48242 26.331 2.48242C27.0599 2.48242 27.7158 2.80242 28.1727 3.31342" stroke="#D8D7DE" strokeWidth="0.4" strokeLinecap="round"/>
  </g>
  <defs>
    <filter id="filter0_dddd_337_3653" x="0.850342" y="0.319336" width="34.5837" height="31.9922" filterUnits="userSpaceOnUse" color-interpolation-filters="sRGB">
      <feFlood flood-opacity="0" result="BackgroundImageFix"/>
      <feColorMatrix in="SourceAlpha" type="matrix" values="0 0 0 0 0 0 0 0 0 0 0 0 0 0 0 0 0 0 127 0" result="hardAlpha"/>
      <feOffset dy="-1"/>
      <feGaussianBlur stdDeviation="1.5"/>
      <feComposite in2="hardAlpha" operator="out"/>
      <feColorMatrix type="matrix" values="0 0 0 0 0.67451 0 0 0 0 0.619608 0 0 0 0 0.74902 0 0 0 1 0"/>
      <feBlend mode="normal" in2="BackgroundImageFix" result="effect1_dropShadow_337_3653"/>
      <feColorMatrix in="SourceAlpha" type="matrix" values="0 0 0 0 0 0 0 0 0 0 0 0 0 0 0 0 0 0 127 0" result="hardAlpha"/>
      <feOffset dx="1"/>
      <feGaussianBlur stdDeviation="0.75"/>
      <feComposite in2="hardAlpha" operator="out"/>
      <feColorMatrix type="matrix" values="0 0 0 0 0.8 0 0 0 0 0.788235 0 0 0 0 0.819608 0 0 0 1 0"/>
      <feBlend mode="normal" in2="effect1_dropShadow_337_3653" result="effect2_dropShadow_337_3653"/>
      <feColorMatrix in="SourceAlpha" type="matrix" values="0 0 0 0 0 0 0 0 0 0 0 0 0 0 0 0 0 0 127 0" result="hardAlpha"/>
      <feOffset dx="-1"/>
      <feGaussianBlur stdDeviation="0.75"/>
      <feComposite in2="hardAlpha" operator="out"/>
      <feColorMatrix type="matrix" values="0 0 0 0 0.956863 0 0 0 0 0.945098 0 0 0 0 0.976471 0 0 0 1 0"/>
      <feBlend mode="normal" in2="effect2_dropShadow_337_3653" result="effect3_dropShadow_337_3653"/>
      <feColorMatrix in="SourceAlpha" type="matrix" values="0 0 0 0 0 0 0 0 0 0 0 0 0 0 0 0 0 0 127 0" result="hardAlpha"/>
      <feOffset dx="0.25" dy="-0.25"/>
      <feGaussianBlur stdDeviation="0.5"/>
      <feComposite in2="hardAlpha" operator="out"/>
      <feColorMatrix type="matrix" values="0 0 0 0 0.670588 0 0 0 0 0.619608 0 0 0 0 0.745098 0 0 0 1 0"/>
      <feBlend mode="normal" in2="effect3_dropShadow_337_3653" result="effect4_dropShadow_337_3653"/>
      <feBlend mode="normal" in="SourceGraphic" in2="effect4_dropShadow_337_3653" result="shape"/>
    </filter>
    <filter id="filter1_dd_337_3653" x="20.2585" y="18.8443" width="14.0755" height="12.9682" filterUnits="userSpaceOnUse" color-interpolation-filters="sRGB">
      <feFlood flood-opacity="0" result="BackgroundImageFix"/>
      <feColorMatrix in="SourceAlpha" type="matrix" values="0 0 0 0 0 0 0 0 0 0 0 0 0 0 0 0 0 0 127 0" result="hardAlpha"/>
      <feOffset dx="-1"/>
      <feGaussianBlur stdDeviation="0.75"/>
      <feComposite in2="hardAlpha" operator="out"/>
      <feColorMatrix type="matrix" values="0 0 0 0 0.937255 0 0 0 0 0.917647 0 0 0 0 0.964706 0 0 0 1 0"/>
      <feBlend mode="normal" in2="BackgroundImageFix" result="effect1_dropShadow_337_3653"/>
      <feColorMatrix in="SourceAlpha" type="matrix" values="0 0 0 0 0 0 0 0 0 0 0 0 0 0 0 0 0 0 127 0" result="hardAlpha"/>
      <feOffset dx="0.4" dy="-0.6"/>
      <feGaussianBlur stdDeviation="0.75"/>
      <feComposite in2="hardAlpha" operator="out"/>
      <feColorMatrix type="matrix" values="0 0 0 0 0.658824 0 0 0 0 0.607843 0 0 0 0 0.729412 0 0 0 1 0"/>
      <feBlend mode="normal" in2="effect1_dropShadow_337_3653" result="effect2_dropShadow_337_3653"/>
      <feBlend mode="normal" in="SourceGraphic" in2="effect2_dropShadow_337_3653" result="shape"/>
    </filter>
    <filter id="filter2_ddd_337_3653" x="10.1078" y="13.6943" width="3.52964" height="3.45469" filterUnits="userSpaceOnUse" color-interpolation-filters="sRGB">
      <feFlood flood-opacity="0" result="BackgroundImageFix"/>
      <feColorMatrix in="SourceAlpha" type="matrix" values="0 0 0 0 0 0 0 0 0 0 0 0 0 0 0 0 0 0 127 0" result="hardAlpha"/>
      <feOffset dx="-0.1" dy="0.1"/>
      <feGaussianBlur stdDeviation="0.15"/>
      <feComposite in2="hardAlpha" operator="out"/>
      <feColorMatrix type="matrix" values="0 0 0 0 0.772549 0 0 0 0 0.752941 0 0 0 0 0.803922 0 0 0 1 0"/>
      <feBlend mode="normal" in2="BackgroundImageFix" result="effect1_dropShadow_337_3653"/>
      <feColorMatrix in="SourceAlpha" type="matrix" values="0 0 0 0 0 0 0 0 0 0 0 0 0 0 0 0 0 0 127 0" result="hardAlpha"/>
      <feOffset dx="-0.1" dy="0.1"/>
      <feGaussianBlur stdDeviation="0.075"/>
      <feComposite in2="hardAlpha" operator="out"/>
      <feColorMatrix type="matrix" values="0 0 0 0 0.654902 0 0 0 0 0.647059 0 0 0 0 0.682353 0 0 0 1 0"/>
      <feBlend mode="normal" in2="effect1_dropShadow_337_3653" result="effect2_dropShadow_337_3653"/>
      <feColorMatrix in="SourceAlpha" type="matrix" values="0 0 0 0 0 0 0 0 0 0 0 0 0 0 0 0 0 0 127 0" result="hardAlpha"/>
      <feOffset dx="0.1" dy="-0.1"/>
      <feGaussianBlur stdDeviation="0.075"/>
      <feComposite in2="hardAlpha" operator="out"/>
      <feColorMatrix type="matrix" values="0 0 0 0 0.572549 0 0 0 0 0.564706 0 0 0 0 0.607843 0 0 0 1 0"/>
      <feBlend mode="normal" in2="effect2_dropShadow_337_3653" result="effect3_dropShadow_337_3653"/>
      <feBlend mode="normal" in="SourceGraphic" in2="effect3_dropShadow_337_3653" result="shape"/>
    </filter>
    <filter id="filter3_ddd_337_3653" x="16.2545" y="13.6943" width="3.52964" height="3.45469" filterUnits="userSpaceOnUse" color-interpolation-filters="sRGB">
      <feFlood flood-opacity="0" result="BackgroundImageFix"/>
      <feColorMatrix in="SourceAlpha" type="matrix" values="0 0 0 0 0 0 0 0 0 0 0 0 0 0 0 0 0 0 127 0" result="hardAlpha"/>
      <feOffset dx="-0.1" dy="0.1"/>
      <feGaussianBlur stdDeviation="0.15"/>
      <feComposite in2="hardAlpha" operator="out"/>
      <feColorMatrix type="matrix" values="0 0 0 0 0.772549 0 0 0 0 0.752941 0 0 0 0 0.803922 0 0 0 1 0"/>
      <feBlend mode="normal" in2="BackgroundImageFix" result="effect1_dropShadow_337_3653"/>
      <feColorMatrix in="SourceAlpha" type="matrix" values="0 0 0 0 0 0 0 0 0 0 0 0 0 0 0 0 0 0 127 0" result="hardAlpha"/>
      <feOffset dx="-0.1" dy="0.1"/>
      <feGaussianBlur stdDeviation="0.075"/>
      <feComposite in2="hardAlpha" operator="out"/>
      <feColorMatrix type="matrix" values="0 0 0 0 0.654902 0 0 0 0 0.647059 0 0 0 0 0.682353 0 0 0 1 0"/>
      <feBlend mode="normal" in2="effect1_dropShadow_337_3653" result="effect2_dropShadow_337_3653"/>
      <feColorMatrix in="SourceAlpha" type="matrix" values="0 0 0 0 0 0 0 0 0 0 0 0 0 0 0 0 0 0 127 0" result="hardAlpha"/>
      <feOffset dx="0.1" dy="-0.1"/>
      <feGaussianBlur stdDeviation="0.075"/>
      <feComposite in2="hardAlpha" operator="out"/>
      <feColorMatrix type="matrix" values="0 0 0 0 0.572549 0 0 0 0 0.564706 0 0 0 0 0.607843 0 0 0 1 0"/>
      <feBlend mode="normal" in2="effect2_dropShadow_337_3653" result="effect3_dropShadow_337_3653"/>
      <feBlend mode="normal" in="SourceGraphic" in2="effect3_dropShadow_337_3653" result="shape"/>
    </filter>
    <filter id="filter4_ddd_337_3653" x="22.4015" y="13.6943" width="3.52964" height="3.45469" filterUnits="userSpaceOnUse" color-interpolation-filters="sRGB">
      <feFlood flood-opacity="0" result="BackgroundImageFix"/>
      <feColorMatrix in="SourceAlpha" type="matrix" values="0 0 0 0 0 0 0 0 0 0 0 0 0 0 0 0 0 0 127 0" result="hardAlpha"/>
      <feOffset dx="-0.1" dy="0.1"/>
      <feGaussianBlur stdDeviation="0.15"/>
      <feComposite in2="hardAlpha" operator="out"/>
      <feColorMatrix type="matrix" values="0 0 0 0 0.772549 0 0 0 0 0.752941 0 0 0 0 0.803922 0 0 0 1 0"/>
      <feBlend mode="normal" in2="BackgroundImageFix" result="effect1_dropShadow_337_3653"/>
      <feColorMatrix in="SourceAlpha" type="matrix" values="0 0 0 0 0 0 0 0 0 0 0 0 0 0 0 0 0 0 127 0" result="hardAlpha"/>
      <feOffset dx="-0.1" dy="0.1"/>
      <feGaussianBlur stdDeviation="0.075"/>
      <feComposite in2="hardAlpha" operator="out"/>
      <feColorMatrix type="matrix" values="0 0 0 0 0.654902 0 0 0 0 0.647059 0 0 0 0 0.682353 0 0 0 1 0"/>
      <feBlend mode="normal" in2="effect1_dropShadow_337_3653" result="effect2_dropShadow_337_3653"/>
      <feColorMatrix in="SourceAlpha" type="matrix" values="0 0 0 0 0 0 0 0 0 0 0 0 0 0 0 0 0 0 127 0" result="hardAlpha"/>
      <feOffset dx="0.1" dy="-0.1"/>
      <feGaussianBlur stdDeviation="0.075"/>
      <feComposite in2="hardAlpha" operator="out"/>
      <feColorMatrix type="matrix" values="0 0 0 0 0.572549 0 0 0 0 0.564706 0 0 0 0 0.607843 0 0 0 1 0"/>
      <feBlend mode="normal" in2="effect2_dropShadow_337_3653" result="effect3_dropShadow_337_3653"/>
      <feBlend mode="normal" in="SourceGraphic" in2="effect3_dropShadow_337_3653" result="shape"/>
    </filter>
    <filter id="filter5_ddd_337_3653" x="10.1078" y="18.6943" width="3.52964" height="3.45469" filterUnits="userSpaceOnUse" color-interpolation-filters="sRGB">
      <feFlood flood-opacity="0" result="BackgroundImageFix"/>
      <feColorMatrix in="SourceAlpha" type="matrix" values="0 0 0 0 0 0 0 0 0 0 0 0 0 0 0 0 0 0 127 0" result="hardAlpha"/>
      <feOffset dx="-0.1" dy="0.1"/>
      <feGaussianBlur stdDeviation="0.15"/>
      <feComposite in2="hardAlpha" operator="out"/>
      <feColorMatrix type="matrix" values="0 0 0 0 0.772549 0 0 0 0 0.752941 0 0 0 0 0.803922 0 0 0 1 0"/>
      <feBlend mode="normal" in2="BackgroundImageFix" result="effect1_dropShadow_337_3653"/>
      <feColorMatrix in="SourceAlpha" type="matrix" values="0 0 0 0 0 0 0 0 0 0 0 0 0 0 0 0 0 0 127 0" result="hardAlpha"/>
      <feOffset dx="-0.1" dy="0.1"/>
      <feGaussianBlur stdDeviation="0.075"/>
      <feComposite in2="hardAlpha" operator="out"/>
      <feColorMatrix type="matrix" values="0 0 0 0 0.654902 0 0 0 0 0.647059 0 0 0 0 0.682353 0 0 0 1 0"/>
      <feBlend mode="normal" in2="effect1_dropShadow_337_3653" result="effect2_dropShadow_337_3653"/>
      <feColorMatrix in="SourceAlpha" type="matrix" values="0 0 0 0 0 0 0 0 0 0 0 0 0 0 0 0 0 0 127 0" result="hardAlpha"/>
      <feOffset dx="0.1" dy="-0.1"/>
      <feGaussianBlur stdDeviation="0.075"/>
      <feComposite in2="hardAlpha" operator="out"/>
      <feColorMatrix type="matrix" values="0 0 0 0 0.572549 0 0 0 0 0.564706 0 0 0 0 0.607843 0 0 0 1 0"/>
      <feBlend mode="normal" in2="effect2_dropShadow_337_3653" result="effect3_dropShadow_337_3653"/>
      <feBlend mode="normal" in="SourceGraphic" in2="effect3_dropShadow_337_3653" result="shape"/>
    </filter>
    <filter id="filter6_ddd_337_3653" x="10.1078" y="23.6943" width="3.52964" height="3.45469" filterUnits="userSpaceOnUse" color-interpolation-filters="sRGB">
      <feFlood flood-opacity="0" result="BackgroundImageFix"/>
      <feColorMatrix in="SourceAlpha" type="matrix" values="0 0 0 0 0 0 0 0 0 0 0 0 0 0 0 0 0 0 127 0" result="hardAlpha"/>
      <feOffset dx="-0.1" dy="0.1"/>
      <feGaussianBlur stdDeviation="0.15"/>
      <feComposite in2="hardAlpha" operator="out"/>
      <feColorMatrix type="matrix" values="0 0 0 0 0.772549 0 0 0 0 0.752941 0 0 0 0 0.803922 0 0 0 1 0"/>
      <feBlend mode="normal" in2="BackgroundImageFix" result="effect1_dropShadow_337_3653"/>
      <feColorMatrix in="SourceAlpha" type="matrix" values="0 0 0 0 0 0 0 0 0 0 0 0 0 0 0 0 0 0 127 0" result="hardAlpha"/>
      <feOffset dx="-0.1" dy="0.1"/>
      <feGaussianBlur stdDeviation="0.075"/>
      <feComposite in2="hardAlpha" operator="out"/>
      <feColorMatrix type="matrix" values="0 0 0 0 0.654902 0 0 0 0 0.647059 0 0 0 0 0.682353 0 0 0 1 0"/>
      <feBlend mode="normal" in2="effect1_dropShadow_337_3653" result="effect2_dropShadow_337_3653"/>
      <feColorMatrix in="SourceAlpha" type="matrix" values="0 0 0 0 0 0 0 0 0 0 0 0 0 0 0 0 0 0 127 0" result="hardAlpha"/>
      <feOffset dx="0.1" dy="-0.1"/>
      <feGaussianBlur stdDeviation="0.075"/>
      <feComposite in2="hardAlpha" operator="out"/>
      <feColorMatrix type="matrix" values="0 0 0 0 0.572549 0 0 0 0 0.564706 0 0 0 0 0.607843 0 0 0 1 0"/>
      <feBlend mode="normal" in2="effect2_dropShadow_337_3653" result="effect3_dropShadow_337_3653"/>
      <feBlend mode="normal" in="SourceGraphic" in2="effect3_dropShadow_337_3653" result="shape"/>
    </filter>
    <filter id="filter7_ddd_337_3653" x="16.2545" y="18.6943" width="3.52964" height="3.45469" filterUnits="userSpaceOnUse" color-interpolation-filters="sRGB">
      <feFlood flood-opacity="0" result="BackgroundImageFix"/>
      <feColorMatrix in="SourceAlpha" type="matrix" values="0 0 0 0 0 0 0 0 0 0 0 0 0 0 0 0 0 0 127 0" result="hardAlpha"/>
      <feOffset dx="-0.1" dy="0.1"/>
      <feGaussianBlur stdDeviation="0.15"/>
      <feComposite in2="hardAlpha" operator="out"/>
      <feColorMatrix type="matrix" values="0 0 0 0 0.772549 0 0 0 0 0.752941 0 0 0 0 0.803922 0 0 0 1 0"/>
      <feBlend mode="normal" in2="BackgroundImageFix" result="effect1_dropShadow_337_3653"/>
      <feColorMatrix in="SourceAlpha" type="matrix" values="0 0 0 0 0 0 0 0 0 0 0 0 0 0 0 0 0 0 127 0" result="hardAlpha"/>
      <feOffset dx="-0.1" dy="0.1"/>
      <feGaussianBlur stdDeviation="0.075"/>
      <feComposite in2="hardAlpha" operator="out"/>
      <feColorMatrix type="matrix" values="0 0 0 0 0.654902 0 0 0 0 0.647059 0 0 0 0 0.682353 0 0 0 1 0"/>
      <feBlend mode="normal" in2="effect1_dropShadow_337_3653" result="effect2_dropShadow_337_3653"/>
      <feColorMatrix in="SourceAlpha" type="matrix" values="0 0 0 0 0 0 0 0 0 0 0 0 0 0 0 0 0 0 127 0" result="hardAlpha"/>
      <feOffset dx="0.1" dy="-0.1"/>
      <feGaussianBlur stdDeviation="0.075"/>
      <feComposite in2="hardAlpha" operator="out"/>
      <feColorMatrix type="matrix" values="0 0 0 0 0.572549 0 0 0 0 0.564706 0 0 0 0 0.607843 0 0 0 1 0"/>
      <feBlend mode="normal" in2="effect2_dropShadow_337_3653" result="effect3_dropShadow_337_3653"/>
      <feBlend mode="normal" in="SourceGraphic" in2="effect3_dropShadow_337_3653" result="shape"/>
    </filter>
    <filter id="filter8_ddd_337_3653" x="16.2545" y="23.6943" width="3.52964" height="3.45469" filterUnits="userSpaceOnUse" color-interpolation-filters="sRGB">
      <feFlood flood-opacity="0" result="BackgroundImageFix"/>
      <feColorMatrix in="SourceAlpha" type="matrix" values="0 0 0 0 0 0 0 0 0 0 0 0 0 0 0 0 0 0 127 0" result="hardAlpha"/>
      <feOffset dx="-0.1" dy="0.1"/>
      <feGaussianBlur stdDeviation="0.15"/>
      <feComposite in2="hardAlpha" operator="out"/>
      <feColorMatrix type="matrix" values="0 0 0 0 0.772549 0 0 0 0 0.752941 0 0 0 0 0.803922 0 0 0 1 0"/>
      <feBlend mode="normal" in2="BackgroundImageFix" result="effect1_dropShadow_337_3653"/>
      <feColorMatrix in="SourceAlpha" type="matrix" values="0 0 0 0 0 0 0 0 0 0 0 0 0 0 0 0 0 0 127 0" result="hardAlpha"/>
      <feOffset dx="-0.1" dy="0.1"/>
      <feGaussianBlur stdDeviation="0.075"/>
      <feComposite in2="hardAlpha" operator="out"/>
      <feColorMatrix type="matrix" values="0 0 0 0 0.654902 0 0 0 0 0.647059 0 0 0 0 0.682353 0 0 0 1 0"/>
      <feBlend mode="normal" in2="effect1_dropShadow_337_3653" result="effect2_dropShadow_337_3653"/>
      <feColorMatrix in="SourceAlpha" type="matrix" values="0 0 0 0 0 0 0 0 0 0 0 0 0 0 0 0 0 0 127 0" result="hardAlpha"/>
      <feOffset dx="0.1" dy="-0.1"/>
      <feGaussianBlur stdDeviation="0.075"/>
      <feComposite in2="hardAlpha" operator="out"/>
      <feColorMatrix type="matrix" values="0 0 0 0 0.572549 0 0 0 0 0.564706 0 0 0 0 0.607843 0 0 0 1 0"/>
      <feBlend mode="normal" in2="effect2_dropShadow_337_3653" result="effect3_dropShadow_337_3653"/>
      <feBlend mode="normal" in="SourceGraphic" in2="effect3_dropShadow_337_3653" result="shape"/>
    </filter>
    <filter id="filter9_ddd_337_3653" x="22.4015" y="18.6943" width="3.52964" height="3.45469" filterUnits="userSpaceOnUse" color-interpolation-filters="sRGB">
      <feFlood flood-opacity="0" result="BackgroundImageFix"/>
      <feColorMatrix in="SourceAlpha" type="matrix" values="0 0 0 0 0 0 0 0 0 0 0 0 0 0 0 0 0 0 127 0" result="hardAlpha"/>
      <feOffset dx="-0.1" dy="0.1"/>
      <feGaussianBlur stdDeviation="0.15"/>
      <feComposite in2="hardAlpha" operator="out"/>
      <feColorMatrix type="matrix" values="0 0 0 0 0.858824 0 0 0 0 0.835294 0 0 0 0 0.917647 0 0 0 1 0"/>
      <feBlend mode="normal" in2="BackgroundImageFix" result="effect1_dropShadow_337_3653"/>
      <feColorMatrix in="SourceAlpha" type="matrix" values="0 0 0 0 0 0 0 0 0 0 0 0 0 0 0 0 0 0 127 0" result="hardAlpha"/>
      <feOffset dx="-0.1" dy="0.1"/>
      <feGaussianBlur stdDeviation="0.075"/>
      <feComposite in2="hardAlpha" operator="out"/>
      <feColorMatrix type="matrix" values="0 0 0 0 0.34902 0 0 0 0 0.631373 0 0 0 0 0.917647 0 0 0 1 0"/>
      <feBlend mode="normal" in2="effect1_dropShadow_337_3653" result="effect2_dropShadow_337_3653"/>
      <feColorMatrix in="SourceAlpha" type="matrix" values="0 0 0 0 0 0 0 0 0 0 0 0 0 0 0 0 0 0 127 0" result="hardAlpha"/>
      <feOffset dx="0.1" dy="-0.1"/>
      <feGaussianBlur stdDeviation="0.075"/>
      <feComposite in2="hardAlpha" operator="out"/>
      <feColorMatrix type="matrix" values="0 0 0 0 0.254902 0 0 0 0 0.498039 0 0 0 0 0.819608 0 0 0 1 0"/>
      <feBlend mode="normal" in2="effect2_dropShadow_337_3653" result="effect3_dropShadow_337_3653"/>
      <feBlend mode="normal" in="SourceGraphic" in2="effect3_dropShadow_337_3653" result="shape"/>
    </filter>
    <filter id="filter10_ddd_337_3653" x="22.4015" y="23.6943" width="3.52964" height="3.45469" filterUnits="userSpaceOnUse" color-interpolation-filters="sRGB">
      <feFlood flood-opacity="0" result="BackgroundImageFix"/>
      <feColorMatrix in="SourceAlpha" type="matrix" values="0 0 0 0 0 0 0 0 0 0 0 0 0 0 0 0 0 0 127 0" result="hardAlpha"/>
      <feOffset dx="-0.1" dy="0.1"/>
      <feGaussianBlur stdDeviation="0.15"/>
      <feComposite in2="hardAlpha" operator="out"/>
      <feColorMatrix type="matrix" values="0 0 0 0 0.772549 0 0 0 0 0.752941 0 0 0 0 0.803922 0 0 0 1 0"/>
      <feBlend mode="normal" in2="BackgroundImageFix" result="effect1_dropShadow_337_3653"/>
      <feColorMatrix in="SourceAlpha" type="matrix" values="0 0 0 0 0 0 0 0 0 0 0 0 0 0 0 0 0 0 127 0" result="hardAlpha"/>
      <feOffset dx="-0.1" dy="0.1"/>
      <feGaussianBlur stdDeviation="0.075"/>
      <feComposite in2="hardAlpha" operator="out"/>
      <feColorMatrix type="matrix" values="0 0 0 0 0.654902 0 0 0 0 0.647059 0 0 0 0 0.682353 0 0 0 1 0"/>
      <feBlend mode="normal" in2="effect1_dropShadow_337_3653" result="effect2_dropShadow_337_3653"/>
      <feColorMatrix in="SourceAlpha" type="matrix" values="0 0 0 0 0 0 0 0 0 0 0 0 0 0 0 0 0 0 127 0" result="hardAlpha"/>
      <feOffset dx="0.1" dy="-0.1"/>
      <feGaussianBlur stdDeviation="0.075"/>
      <feComposite in2="hardAlpha" operator="out"/>
      <feColorMatrix type="matrix" values="0 0 0 0 0.572549 0 0 0 0 0.564706 0 0 0 0 0.607843 0 0 0 1 0"/>
      <feBlend mode="normal" in2="effect2_dropShadow_337_3653" result="effect3_dropShadow_337_3653"/>
      <feBlend mode="normal" in="SourceGraphic" in2="effect3_dropShadow_337_3653" result="shape"/>
    </filter>
    <filter id="filter11_d_337_3653" x="22.3324" y="20.4693" width="10.4022" height="10.1432" filterUnits="userSpaceOnUse" color-interpolation-filters="sRGB">
      <feFlood flood-opacity="0" result="BackgroundImageFix"/>
      <feColorMatrix in="SourceAlpha" type="matrix" values="0 0 0 0 0 0 0 0 0 0 0 0 0 0 0 0 0 0 127 0" result="hardAlpha"/>
      <feOffset dx="0.1" dy="0.1"/>
      <feGaussianBlur stdDeviation="0.1"/>
      <feComposite in2="hardAlpha" operator="out"/>
      <feColorMatrix type="matrix" values="0 0 0 0 0.803922 0 0 0 0 0.807843 0 0 0 0 0.870588 0 0 0 1 0"/>
      <feBlend mode="normal" in2="BackgroundImageFix" result="effect1_dropShadow_337_3653"/>
      <feBlend mode="normal" in="SourceGraphic" in2="effect1_dropShadow_337_3653" result="shape"/>
    </filter>
    <filter id="filter12_f_337_3653" x="14.3259" y="3.36035" width="19.0654" height="8.5" filterUnits="userSpaceOnUse" color-interpolation-filters="sRGB">
      <feFlood flood-opacity="0" result="BackgroundImageFix"/>
      <feBlend mode="normal" in="SourceGraphic" in2="BackgroundImageFix" result="shape"/>
      <feGaussianBlur stdDeviation="0.625" result="effect1_foregroundBlur_337_3653"/>
    </filter>
    <filter id="filter13_f_337_3653" x="21.6833" y="3.56934" width="5.0188" height="5.92578" filterUnits="userSpaceOnUse" color-interpolation-filters="sRGB">
      <feFlood flood-opacity="0" result="BackgroundImageFix"/>
      <feBlend mode="normal" in="SourceGraphic" in2="BackgroundImageFix" result="shape"/>
      <feGaussianBlur stdDeviation="0.375" result="effect1_foregroundBlur_337_3653"/>
    </filter>
    <filter id="filter14_f_337_3653" x="15.9045" y="3.56934" width="5.0188" height="5.92578" filterUnits="userSpaceOnUse" color-interpolation-filters="sRGB">
      <feFlood flood-opacity="0" result="BackgroundImageFix"/>
      <feBlend mode="normal" in="SourceGraphic" in2="BackgroundImageFix" result="shape"/>
      <feGaussianBlur stdDeviation="0.375" result="effect1_foregroundBlur_337_3653"/>
    </filter>
    <filter id="filter15_f_337_3653" x="10.6064" y="3.56934" width="5.0188" height="5.92578" filterUnits="userSpaceOnUse" color-interpolation-filters="sRGB">
      <feFlood flood-opacity="0" result="BackgroundImageFix"/>
      <feBlend mode="normal" in="SourceGraphic" in2="BackgroundImageFix" result="shape"/>
      <feGaussianBlur stdDeviation="0.375" result="effect1_foregroundBlur_337_3653"/>
    </filter>
    <filter id="filter16_f_337_3653" x="5.63794" y="3.56934" width="4.9917" height="5.92578" filterUnits="userSpaceOnUse" color-interpolation-filters="sRGB">
      <feFlood flood-opacity="0" result="BackgroundImageFix"/>
      <feBlend mode="normal" in="SourceGraphic" in2="BackgroundImageFix" result="shape"/>
      <feGaussianBlur stdDeviation="0.375" result="effect1_foregroundBlur_337_3653"/>
    </filter>
    <filter id="filter17_f_337_3653" x="6.90635" y="1.68223" width="5.94634" height="6.71367" filterUnits="userSpaceOnUse" color-interpolation-filters="sRGB">
      <feFlood flood-opacity="0" result="BackgroundImageFix"/>
      <feBlend mode="normal" in="SourceGraphic" in2="BackgroundImageFix" result="shape"/>
      <feGaussianBlur stdDeviation="0.3" result="effect1_foregroundBlur_337_3653"/>
    </filter>
    <filter id="filter18_f_337_3653" x="12.2564" y="1.68223" width="5.94756" height="6.71367" filterUnits="userSpaceOnUse" color-interpolation-filters="sRGB">
      <feFlood flood-opacity="0" result="BackgroundImageFix"/>
      <feBlend mode="normal" in="SourceGraphic" in2="BackgroundImageFix" result="shape"/>
      <feGaussianBlur stdDeviation="0.3" result="effect1_foregroundBlur_337_3653"/>
    </filter>
    <filter id="filter19_f_337_3653" x="17.6461" y="1.68223" width="5.94756" height="6.71367" filterUnits="userSpaceOnUse" color-interpolation-filters="sRGB">
      <feFlood flood-opacity="0" result="BackgroundImageFix"/>
      <feBlend mode="normal" in="SourceGraphic" in2="BackgroundImageFix" result="shape"/>
      <feGaussianBlur stdDeviation="0.3" result="effect1_foregroundBlur_337_3653"/>
    </filter>
    <filter id="filter20_f_337_3653" x="23.0262" y="1.68223" width="5.94634" height="6.71367" filterUnits="userSpaceOnUse" color-interpolation-filters="sRGB">
      <feFlood flood-opacity="0" result="BackgroundImageFix"/>
      <feBlend mode="normal" in="SourceGraphic" in2="BackgroundImageFix" result="shape"/>
      <feGaussianBlur stdDeviation="0.3" result="effect1_foregroundBlur_337_3653"/>
    </filter>
    <linearGradient id="paint0_linear_337_3653" x1="7.02963" y1="18.8193" x2="30.4847" y2="18.8193" gradientUnits="userSpaceOnUse">
      <stop stop-color="#E4DEEC"/>
      <stop offset="1" stop-color="#E7E2EF"/>
    </linearGradient>
    <linearGradient id="paint1_linear_337_3653" x1="3.51465" y1="9.58134" x2="30.2927" y2="9.58134" gradientUnits="userSpaceOnUse">
      <stop stop-color="#4271C7"/>
      <stop offset="0.794" stop-color="#4F9FDC"/>
    </linearGradient>
    <linearGradient id="paint2_linear_337_3653" x1="18.1423" y1="4.31934" x2="18.1423" y2="6.23534" gradientUnits="userSpaceOnUse">
      <stop stop-color="#5591D3"/>
      <stop offset="1" stop-color="#5591D3" stop-opacity="0"/>
    </linearGradient>
    <radialGradient id="paint3_radial_337_3653" cx="0" cy="0" r="1" gradientUnits="userSpaceOnUse" gradientTransform="translate(24.005 11.1323) rotate(-170.407) scale(20.4407 11.0861)">
      <stop offset="0.759" stop-color="#3E62C2" stop-opacity="0"/>
      <stop offset="1" stop-color="#3B41A1"/>
    </radialGradient>
    <linearGradient id="paint4_linear_337_3653" x1="23.4548" y1="11.9533" x2="23.4548" y2="10.4933" gradientUnits="userSpaceOnUse">
      <stop stop-color="#437AC4"/>
      <stop offset="1" stop-color="#437AC4" stop-opacity="0"/>
    </linearGradient>
    <linearGradient id="paint5_linear_337_3653" x1="25.9859" y1="18.9443" x2="22.2993" y2="21.6609" gradientUnits="userSpaceOnUse">
      <stop stop-color="#4C92DE"/>
      <stop offset="1" stop-color="#4B91DB"/>
    </linearGradient>
    <radialGradient id="paint6_radial_337_3653" cx="0" cy="0" r="1" gradientUnits="userSpaceOnUse" gradientTransform="translate(25.3448 23.0073) rotate(44.9481) scale(3.44488 8.3508)">
      <stop stop-color="#E4DDED"/>
      <stop offset="1" stop-color="#D5CFDC"/>
    </radialGradient>
    <linearGradient id="paint7_linear_337_3653" x1="27.4944" y1="26.0183" x2="27.2365" y2="25.7546" gradientUnits="userSpaceOnUse">
      <stop offset="0.461" stop-color="#BFB8CA"/>
      <stop offset="1" stop-color="#D9D3E0" stop-opacity="0"/>
    </linearGradient>
    <radialGradient id="paint8_radial_337_3653" cx="0" cy="0" r="1" gradientUnits="userSpaceOnUse" gradientTransform="translate(33.4458 5.36095) rotate(153.368) scale(10.2999 14.5832)">
      <stop stop-color="#70C0F8"/>
      <stop offset="1" stop-color="#70C0F8" stop-opacity="0"/>
    </radialGradient>
    <radialGradient id="paint9_radial_337_3653" cx="0" cy="0" r="1" gradientUnits="userSpaceOnUse" gradientTransform="translate(11.4324 4.68504) rotate(138.567) scale(4.72823 5.22125)">
      <stop offset="0.525" stop-color="#C2C4CC"/>
      <stop offset="0.962" stop-color="#938DA1"/>
    </radialGradient>
    <radialGradient id="paint10_radial_337_3653" cx="0" cy="0" r="1" gradientUnits="userSpaceOnUse" gradientTransform="translate(10.1964 5.256) rotate(-59.9076) scale(2.43127 2.58649)">
      <stop offset="0.546" stop-color="#8F96BB"/>
      <stop offset="1" stop-color="#8F96BB" stop-opacity="0"/>
    </radialGradient>
    <radialGradient id="paint11_radial_337_3653" cx="0" cy="0" r="1" gradientUnits="userSpaceOnUse" gradientTransform="translate(16.783 4.68496) rotate(138.567) scale(4.72823 5.22125)">
      <stop offset="0.525" stop-color="#C2C4CC"/>
      <stop offset="0.962" stop-color="#938DA1"/>
    </radialGradient>
    <radialGradient id="paint12_radial_337_3653" cx="0" cy="0" r="1" gradientUnits="userSpaceOnUse" gradientTransform="translate(15.547 5.257) rotate(-59.907) scale(2.43127 2.58648)">
      <stop offset="0.546" stop-color="#8F96BB"/>
      <stop offset="1" stop-color="#8F96BB" stop-opacity="0"/>
    </radialGradient>
    <radialGradient id="paint13_radial_337_3653" cx="0" cy="0" r="1" gradientUnits="userSpaceOnUse" gradientTransform="translate(22.1721 4.6843) rotate(138.567) scale(4.72823 5.22125)">
      <stop offset="0.525" stop-color="#C2C4CC"/>
      <stop offset="0.962" stop-color="#938DA1"/>
    </radialGradient>
    <radialGradient id="paint14_radial_337_3653" cx="0" cy="0" r="1" gradientUnits="userSpaceOnUse" gradientTransform="translate(20.9364 5.257) rotate(-59.907) scale(2.43127 2.58648)">
      <stop offset="0.546" stop-color="#8F96BB"/>
      <stop offset="1" stop-color="#8F96BB" stop-opacity="0"/>
    </radialGradient>
    <radialGradient id="paint15_radial_337_3653" cx="0" cy="0" r="1" gradientUnits="userSpaceOnUse" gradientTransform="translate(27.5509 4.68352) rotate(138.567) scale(4.72823 5.22125)">
      <stop offset="0.525" stop-color="#C2C4CC"/>
      <stop offset="0.962" stop-color="#938DA1"/>
    </radialGradient>
    <radialGradient id="paint16_radial_337_3653" cx="0" cy="0" r="1" gradientUnits="userSpaceOnUse" gradientTransform="translate(26.3165 5.257) rotate(-59.907) scale(2.43127 2.58648)">
      <stop offset="0.546" stop-color="#8F96BB"/>
      <stop offset="1" stop-color="#8F96BB" stop-opacity="0"/>
    </radialGradient>
  </defs>
</svg>