<svg xmlns="http://www.w3.org/2000/svg" width="28" height="30" viewBox="0 0 28 30" fill="none">
  <g filter="url(#filter0_dd_337_3625)">
    <path d="M23.487 2.99121H5.98203C5.20883 2.99121 4.58203 3.61801 4.58203 4.39121V27.3802C4.58203 28.1534 5.20883 28.7802 5.98203 28.7802H23.487C24.2602 28.7802 24.887 28.1534 24.887 27.3802V4.39121C24.887 3.61801 24.2602 2.99121 23.487 2.99121Z" fill="url(#paint0_linear_337_3625)"/>
    <path d="M23.487 2.99121H5.98203C5.20883 2.99121 4.58203 3.61801 4.58203 4.39121V27.3802C4.58203 28.1534 5.20883 28.7802 5.98203 28.7802H23.487C24.2602 28.7802 24.887 28.1534 24.887 27.3802V4.39121C24.887 3.61801 24.2602 2.99121 23.487 2.99121Z" fill="url(#paint1_linear_337_3625)"/>
  </g>
  <g filter="url(#filter1_f_337_3625)">
    <path d="M16.3501 2.99221H6.2471C5.5331 2.99221 4.9541 3.61821 4.9541 4.39221V27.3802C4.9541 27.4312 4.9571 27.4812 4.9611 27.5302H19.8161C20.4761 27.5302 21.0121 26.9502 21.0121 26.2362V8.42021C21.0137 8.17858 20.9245 7.94517 20.7621 7.76621L16.3521 2.99121L16.3501 2.99221Z" fill="#91879F"/>
  </g>
  <g filter="url(#filter2_dddd_337_3625)">
    <path d="M15.222 1.27C15.0484 1.09689 14.8132 0.999774 14.568 1H2.295C1.58 1 1 1.58 1 2.294V25.524C1 26.24 1.58 26.82 2.295 26.82H19.982C20.698 26.82 21.277 26.24 21.277 25.524V7.709C21.2772 7.46383 21.1801 7.22861 21.007 7.055L15.222 1.27Z" fill="url(#paint2_linear_337_3625)"/>
  </g>
  <g filter="url(#filter3_f_337_3625)">
    <path d="M14.6081 1.38164C14.6081 1.19564 14.6621 1.07664 14.5601 1.05664C14.6571 1.06264 14.7971 1.09764 14.8861 1.13264C14.9991 1.17764 14.8591 1.27664 14.9481 1.36264L14.9561 1.37164L20.7401 7.15564C20.9128 7.32949 21.0098 7.56456 21.0101 7.80964V7.86764C21.0101 7.65264 20.8561 7.52464 20.7401 7.52464H15.7171C15.4227 7.52464 15.1403 7.40769 14.9322 7.19953C14.724 6.99136 14.6071 6.70903 14.6071 6.41464L14.6081 1.38164Z" fill="#D2C5DF"/>
  </g>
  <g filter="url(#filter4_dd_337_3625)">
    <path d="M14.875 1.28195C14.875 1.09495 14.729 1.02195 14.627 1.00195C14.8513 1.01604 15.0628 1.1113 15.222 1.26995L21.006 7.05495C21.0921 7.14067 21.1604 7.24259 21.2069 7.35484C21.2534 7.46709 21.2772 7.58745 21.277 7.70895V7.76695C21.277 7.55195 21.122 7.42395 21.007 7.42395H15.985C15.6906 7.42395 15.4082 7.30701 15.2001 7.09884C14.9919 6.89068 14.875 6.60834 14.875 6.31395V1.28095V1.28195Z" fill="url(#paint3_linear_337_3625)"/>
  </g>
  <path d="M14.875 1.28195C14.875 1.09495 14.729 1.02195 14.627 1.00195C14.8513 1.01604 15.0628 1.1113 15.222 1.26995L21.006 7.05495C21.0921 7.14067 21.1604 7.24259 21.2069 7.35484C21.2534 7.46709 21.2772 7.58745 21.277 7.70895V7.76695C21.277 7.55195 21.122 7.42395 21.007 7.42395H15.985C15.6906 7.42395 15.4082 7.30701 15.2001 7.09884C14.9919 6.89068 14.875 6.60834 14.875 6.31395V1.28095V1.28195Z" fill="url(#paint4_linear_337_3625)"/>
  <path d="M17.111 10.2061H5.15895C4.90545 10.2061 4.69995 10.4116 4.69995 10.6651C4.69995 10.9186 4.90545 11.1241 5.15895 11.1241H17.111C17.3644 11.1241 17.57 10.9186 17.57 10.6651C17.57 10.4116 17.3644 10.2061 17.111 10.2061Z" fill="url(#paint5_linear_337_3625)"/>
  <path d="M17.111 12.9814H5.15895C4.90545 12.9814 4.69995 13.1869 4.69995 13.4404C4.69995 13.6939 4.90545 13.8994 5.15895 13.8994H17.111C17.3644 13.8994 17.57 13.6939 17.57 13.4404C17.57 13.1869 17.3644 12.9814 17.111 12.9814Z" fill="url(#paint6_linear_337_3625)"/>
  <path d="M17.111 15.7559H5.15895C4.90545 15.7559 4.69995 15.9614 4.69995 16.2149C4.69995 16.4684 4.90545 16.6739 5.15895 16.6739H17.111C17.3644 16.6739 17.57 16.4684 17.57 16.2149C17.57 15.9614 17.3644 15.7559 17.111 15.7559Z" fill="url(#paint7_linear_337_3625)"/>
  <path d="M12.551 18.5312H5.15895C4.90545 18.5312 4.69995 18.7368 4.69995 18.9902C4.69995 19.2437 4.90545 19.4492 5.15895 19.4492H12.551C12.8045 19.4492 13.01 19.2437 13.01 18.9902C13.01 18.7368 12.8045 18.5312 12.551 18.5312Z" fill="url(#paint8_linear_337_3625)"/>
  <g filter="url(#filter5_f_337_3625)">
    <path d="M21.1519 12.3662H19.7699C19.7023 12.3666 19.6355 12.3817 19.5742 12.4104C19.513 12.439 19.4586 12.4806 19.4149 12.5322L18.5139 13.5822C18.4745 13.6289 18.4529 13.6881 18.4529 13.7492C18.4529 13.8103 18.4745 13.8695 18.5139 13.9162L19.4139 14.9662C19.5049 15.0722 19.6339 15.1322 19.7699 15.1322H21.1519V12.3662Z" fill="#BAA8C1"/>
  </g>
  <g filter="url(#filter6_dd_337_3625)">
    <path d="M19.9869 12.2041C20.0339 12.1517 20.0914 12.1099 20.1557 12.0813C20.22 12.0527 20.2896 12.038 20.3599 12.0381H23.6599C23.7262 12.0381 23.7898 12.0644 23.8367 12.1113C23.8836 12.1582 23.9099 12.2218 23.9099 12.2881V14.5541C23.9099 14.6204 23.8836 14.684 23.8367 14.7309C23.7898 14.7777 23.7262 14.8041 23.6599 14.8041H20.3599C20.2897 14.8041 20.2203 14.7893 20.1562 14.7607C20.0922 14.7321 20.0348 14.6903 19.9879 14.6381L19.0449 13.5881C19.0037 13.5422 18.981 13.4827 18.981 13.4211C18.981 13.3594 19.0037 13.3 19.0449 13.2541L19.9879 12.2041H19.9869Z" fill="url(#paint9_linear_337_3625)"/>
    <path d="M19.9869 12.2041C20.0339 12.1517 20.0914 12.1099 20.1557 12.0813C20.22 12.0527 20.2896 12.038 20.3599 12.0381H23.6599C23.7262 12.0381 23.7898 12.0644 23.8367 12.1113C23.8836 12.1582 23.9099 12.2218 23.9099 12.2881V14.5541C23.9099 14.6204 23.8836 14.684 23.8367 14.7309C23.7898 14.7777 23.7262 14.8041 23.6599 14.8041H20.3599C20.2897 14.8041 20.2203 14.7893 20.1562 14.7607C20.0922 14.7321 20.0348 14.6903 19.9879 14.6381L19.0449 13.5881C19.0037 13.5422 18.981 13.4827 18.981 13.4211C18.981 13.3594 19.0037 13.3 19.0449 13.2541L19.9879 12.2041H19.9869Z" fill="url(#paint10_linear_337_3625)"/>
  </g>
  <g filter="url(#filter7_f_337_3625)">
    <path d="M24.7931 19.3701V22.1361H22.7871C22.7184 22.136 22.6505 22.1211 22.5881 22.0924C22.5256 22.0638 22.47 22.0221 22.4251 21.9701L21.5081 20.9201C21.4679 20.8738 21.4458 20.8145 21.4458 20.7531C21.4458 20.6918 21.4679 20.6325 21.5081 20.5861L22.4251 19.5361C22.47 19.4842 22.5256 19.4424 22.5881 19.4138C22.6505 19.3852 22.7184 19.3703 22.7871 19.3701H24.7931Z" fill="#91879F"/>
  </g>
  <g filter="url(#filter8_dd_337_3625)">
    <path d="M22.972 19.1572C23.0189 19.105 23.0763 19.0632 23.1404 19.0346C23.2045 19.006 23.2739 18.9912 23.344 18.9912H26.644C26.7104 18.9912 26.7739 19.0175 26.8208 19.0644C26.8677 19.1113 26.894 19.1749 26.894 19.2412V21.5072C26.894 21.5735 26.8677 21.6371 26.8208 21.684C26.7739 21.7309 26.7104 21.7572 26.644 21.7572H23.344C23.2739 21.7572 23.2045 21.7424 23.1404 21.7138C23.0763 21.6852 23.0189 21.6434 22.972 21.5912L22.029 20.5412C21.9879 20.4953 21.9651 20.4359 21.9651 20.3742C21.9651 20.3126 21.9879 20.2531 22.029 20.2072L22.972 19.1572Z" fill="url(#paint11_linear_337_3625)"/>
    <path d="M22.972 19.1572C23.0189 19.105 23.0763 19.0632 23.1404 19.0346C23.2045 19.006 23.2739 18.9912 23.344 18.9912H26.644C26.7104 18.9912 26.7739 19.0175 26.8208 19.0644C26.8677 19.1113 26.894 19.1749 26.894 19.2412V21.5072C26.894 21.5735 26.8677 21.6371 26.8208 21.684C26.7739 21.7309 26.7104 21.7572 26.644 21.7572H23.344C23.2739 21.7572 23.2045 21.7424 23.1404 21.7138C23.0763 21.6852 23.0189 21.6434 22.972 21.5912L22.029 20.5412C21.9879 20.4953 21.9651 20.4359 21.9651 20.3742C21.9651 20.3126 21.9879 20.2531 22.029 20.2072L22.972 19.1572Z" fill="url(#paint12_linear_337_3625)"/>
  </g>
  <defs>
    <filter id="filter0_dd_337_3625" x="4.28203" y="2.79121" width="20.8049" height="26.2891" filterUnits="userSpaceOnUse" colorInterpolationFilters="sRGB">
      <feFlood floodOpacity="0" result="BackgroundImageFix"/>
      <feColorMatrix in="SourceAlpha" type="matrix" values="0 0 0 0 0 0 0 0 0 0 0 0 0 0 0 0 0 0 127 0" result="hardAlpha"/>
      <feOffset dx="0.1" dy="-0.1"/>
      <feGaussianBlur stdDeviation="0.05"/>
      <feComposite in2="hardAlpha" operator="out"/>
      <feColorMatrix type="matrix" values="0 0 0 0 0.596078 0 0 0 0 0.529412 0 0 0 0 0.67451 0 0 0 1 0"/>
      <feBlend mode="normal" in2="BackgroundImageFix" result="effect1_dropShadow_337_3625"/>
      <feColorMatrix in="SourceAlpha" type="matrix" values="0 0 0 0 0 0 0 0 0 0 0 0 0 0 0 0 0 0 127 0" result="hardAlpha"/>
      <feOffset dx="-0.1" dy="0.1"/>
      <feGaussianBlur stdDeviation="0.1"/>
      <feComposite in2="hardAlpha" operator="out"/>
      <feColorMatrix type="matrix" values="0 0 0 0 0.811765 0 0 0 0 0.8 0 0 0 0 0.827451 0 0 0 1 0"/>
      <feBlend mode="normal" in2="effect1_dropShadow_337_3625" result="effect2_dropShadow_337_3625"/>
      <feBlend mode="normal" in="SourceGraphic" in2="effect2_dropShadow_337_3625" result="shape"/>
    </filter>
    <filter id="filter1_f_337_3625" x="3.9541" y="1.99121" width="18.0581" height="26.5391" filterUnits="userSpaceOnUse" colorInterpolationFilters="sRGB">
      <feFlood floodOpacity="0" result="BackgroundImageFix"/>
      <feBlend mode="normal" in="SourceGraphic" in2="BackgroundImageFix" result="shape"/>
      <feGaussianBlur stdDeviation="0.5" result="effect1_foregroundBlur_337_3625"/>
    </filter>
    <filter id="filter2_dddd_337_3625" x="0.7" y="0.1" width="21.4771" height="27.0203" filterUnits="userSpaceOnUse" colorInterpolationFilters="sRGB">
      <feFlood floodOpacity="0" result="BackgroundImageFix"/>
      <feColorMatrix in="SourceAlpha" type="matrix" values="0 0 0 0 0 0 0 0 0 0 0 0 0 0 0 0 0 0 127 0" result="hardAlpha"/>
      <feOffset dx="0.3" dy="-0.3"/>
      <feGaussianBlur stdDeviation="0.3"/>
      <feComposite in2="hardAlpha" operator="out"/>
      <feColorMatrix type="matrix" values="0 0 0 0 0.807843 0 0 0 0 0.768627 0 0 0 0 0.85098 0 0 0 1 0"/>
      <feBlend mode="normal" in2="BackgroundImageFix" result="effect1_dropShadow_337_3625"/>
      <feColorMatrix in="SourceAlpha" type="matrix" values="0 0 0 0 0 0 0 0 0 0 0 0 0 0 0 0 0 0 127 0" result="hardAlpha"/>
      <feOffset dx="0.1" dy="-0.1"/>
      <feGaussianBlur stdDeviation="0.1"/>
      <feComposite in2="hardAlpha" operator="out"/>
      <feColorMatrix type="matrix" values="0 0 0 0 0.709804 0 0 0 0 0.690196 0 0 0 0 0.733333 0 0 0 1 0"/>
      <feBlend mode="normal" in2="effect1_dropShadow_337_3625" result="effect2_dropShadow_337_3625"/>
      <feColorMatrix in="SourceAlpha" type="matrix" values="0 0 0 0 0 0 0 0 0 0 0 0 0 0 0 0 0 0 127 0" result="hardAlpha"/>
      <feOffset dy="-0.1"/>
      <feGaussianBlur stdDeviation="0.1"/>
      <feComposite in2="hardAlpha" operator="out"/>
      <feColorMatrix type="matrix" values="0 0 0 0 0.72549 0 0 0 0 0.65098 0 0 0 0 0.8 0 0 0 1 0"/>
      <feBlend mode="normal" in2="effect2_dropShadow_337_3625" result="effect3_dropShadow_337_3625"/>
      <feColorMatrix in="SourceAlpha" type="matrix" values="0 0 0 0 0 0 0 0 0 0 0 0 0 0 0 0 0 0 127 0" result="hardAlpha"/>
      <feOffset dx="-0.15" dy="0.15"/>
      <feGaussianBlur stdDeviation="0.05"/>
      <feComposite in2="hardAlpha" operator="out"/>
      <feColorMatrix type="matrix" values="0 0 0 0 0.952941 0 0 0 0 0.941176 0 0 0 0 0.964706 0 0 0 1 0"/>
      <feBlend mode="normal" in2="effect3_dropShadow_337_3625" result="effect4_dropShadow_337_3625"/>
      <feBlend mode="normal" in="SourceGraphic" in2="effect4_dropShadow_337_3625" result="shape"/>
    </filter>
    <filter id="filter3_f_337_3625" x="14.0601" y="0.556641" width="7.44995" height="7.81055" filterUnits="userSpaceOnUse" colorInterpolationFilters="sRGB">
      <feFlood floodOpacity="0" result="BackgroundImageFix"/>
      <feBlend mode="normal" in="SourceGraphic" in2="BackgroundImageFix" result="shape"/>
      <feGaussianBlur stdDeviation="0.25" result="effect1_foregroundBlur_337_3625"/>
    </filter>
    <filter id="filter4_dd_337_3625" x="14.477" y="0.751953" width="7.0499" height="7.16465" filterUnits="userSpaceOnUse" colorInterpolationFilters="sRGB">
      <feFlood floodOpacity="0" result="BackgroundImageFix"/>
      <feColorMatrix in="SourceAlpha" type="matrix" values="0 0 0 0 0 0 0 0 0 0 0 0 0 0 0 0 0 0 127 0" result="hardAlpha"/>
      <feOffset dx="0.1"/>
      <feGaussianBlur stdDeviation="0.075"/>
      <feComposite in2="hardAlpha" operator="out"/>
      <feColorMatrix type="matrix" values="0 0 0 0 0.631373 0 0 0 0 0.611765 0 0 0 0 0.654902 0 0 0 1 0"/>
      <feBlend mode="normal" in2="BackgroundImageFix" result="effect1_dropShadow_337_3625"/>
      <feColorMatrix in="SourceAlpha" type="matrix" values="0 0 0 0 0 0 0 0 0 0 0 0 0 0 0 0 0 0 127 0" result="hardAlpha"/>
      <feOffset dy="-0.1"/>
      <feGaussianBlur stdDeviation="0.075"/>
      <feComposite in2="hardAlpha" operator="out"/>
      <feColorMatrix type="matrix" values="0 0 0 0 0.752941 0 0 0 0 0.67451 0 0 0 0 0.835294 0 0 0 1 0"/>
      <feBlend mode="normal" in2="effect1_dropShadow_337_3625" result="effect2_dropShadow_337_3625"/>
      <feBlend mode="normal" in="SourceGraphic" in2="effect2_dropShadow_337_3625" result="shape"/>
    </filter>
    <filter id="filter5_f_337_3625" x="17.8529" y="11.7662" width="3.89897" height="3.96563" filterUnits="userSpaceOnUse" colorInterpolationFilters="sRGB">
      <feFlood floodOpacity="0" result="BackgroundImageFix"/>
      <feBlend mode="normal" in="SourceGraphic" in2="BackgroundImageFix" result="shape"/>
      <feGaussianBlur stdDeviation="0.3" result="effect1_foregroundBlur_337_3625"/>
    </filter>
    <filter id="filter6_dd_337_3625" x="18.481" y="11.5381" width="5.92896" height="3.76563" filterUnits="userSpaceOnUse" colorInterpolationFilters="sRGB">
      <feFlood floodOpacity="0" result="BackgroundImageFix"/>
      <feColorMatrix in="SourceAlpha" type="matrix" values="0 0 0 0 0 0 0 0 0 0 0 0 0 0 0 0 0 0 127 0" result="hardAlpha"/>
      <feOffset dx="-0.2" dy="0.2"/>
      <feGaussianBlur stdDeviation="0.15"/>
      <feComposite in2="hardAlpha" operator="out"/>
      <feColorMatrix type="matrix" values="0 0 0 0 0.92549 0 0 0 0 0.4 0 0 0 0 0.576471 0 0 0 1 0"/>
      <feBlend mode="normal" in2="BackgroundImageFix" result="effect1_dropShadow_337_3625"/>
      <feColorMatrix in="SourceAlpha" type="matrix" values="0 0 0 0 0 0 0 0 0 0 0 0 0 0 0 0 0 0 127 0" result="hardAlpha"/>
      <feOffset dx="0.2" dy="-0.2"/>
      <feGaussianBlur stdDeviation="0.15"/>
      <feComposite in2="hardAlpha" operator="out"/>
      <feColorMatrix type="matrix" values="0 0 0 0 0.721569 0 0 0 0 0.223529 0 0 0 0 0.376471 0 0 0 1 0"/>
      <feBlend mode="normal" in2="effect1_dropShadow_337_3625" result="effect2_dropShadow_337_3625"/>
      <feBlend mode="normal" in="SourceGraphic" in2="effect2_dropShadow_337_3625" result="shape"/>
    </filter>
    <filter id="filter7_f_337_3625" x="21.0458" y="18.9701" width="4.14741" height="3.56563" filterUnits="userSpaceOnUse" colorInterpolationFilters="sRGB">
      <feFlood floodOpacity="0" result="BackgroundImageFix"/>
      <feBlend mode="normal" in="SourceGraphic" in2="BackgroundImageFix" result="shape"/>
      <feGaussianBlur stdDeviation="0.2" result="effect1_foregroundBlur_337_3625"/>
    </filter>
    <filter id="filter8_dd_337_3625" x="21.4651" y="18.4912" width="5.92896" height="3.76563" filterUnits="userSpaceOnUse" colorInterpolationFilters="sRGB">
      <feFlood floodOpacity="0" result="BackgroundImageFix"/>
      <feColorMatrix in="SourceAlpha" type="matrix" values="0 0 0 0 0 0 0 0 0 0 0 0 0 0 0 0 0 0 127 0" result="hardAlpha"/>
      <feOffset dx="-0.2" dy="0.2"/>
      <feGaussianBlur stdDeviation="0.15"/>
      <feComposite in2="hardAlpha" operator="out"/>
      <feColorMatrix type="matrix" values="0 0 0 0 0.988235 0 0 0 0 0.929412 0 0 0 0 0.439216 0 0 0 1 0"/>
      <feBlend mode="normal" in2="BackgroundImageFix" result="effect1_dropShadow_337_3625"/>
      <feColorMatrix in="SourceAlpha" type="matrix" values="0 0 0 0 0 0 0 0 0 0 0 0 0 0 0 0 0 0 127 0" result="hardAlpha"/>
      <feOffset dx="0.2" dy="-0.2"/>
      <feGaussianBlur stdDeviation="0.15"/>
      <feComposite in2="hardAlpha" operator="out"/>
      <feColorMatrix type="matrix" values="0 0 0 0 0.647059 0 0 0 0 0.411765 0 0 0 0 0.278431 0 0 0 1 0"/>
      <feBlend mode="normal" in2="effect1_dropShadow_337_3625" result="effect2_dropShadow_337_3625"/>
      <feBlend mode="normal" in="SourceGraphic" in2="effect2_dropShadow_337_3625" result="shape"/>
    </filter>
    <linearGradient id="paint0_linear_337_3625" x1="18.184" y1="23.1322" x2="25.684" y2="26.6952" gradientUnits="userSpaceOnUse">
      <stop stopColor="#AFAAB6"/>
      <stop offset="1" stopColor="#B7B0C0"/>
    </linearGradient>
    <linearGradient id="paint1_linear_337_3625" x1="6.12103" y1="29.1952" x2="18.621" y2="21.2572" gradientUnits="userSpaceOnUse">
      <stop stopColor="#A79FB2"/>
      <stop offset="1" stopColor="#A79FB2" stopOpacity="0"/>
    </linearGradient>
    <linearGradient id="paint2_linear_337_3625" x1="11.139" y1="0.999" x2="11.139" y2="26.82" gradientUnits="userSpaceOnUse">
      <stop stopColor="#EBE4F3"/>
      <stop offset="1" stopColor="#E4DAF0"/>
    </linearGradient>
    <linearGradient id="paint3_linear_337_3625" x1="15.337" y1="7.16395" x2="17.78" y2="4.72095" gradientUnits="userSpaceOnUse">
      <stop stopColor="#D9D3E1"/>
      <stop offset="1" stopColor="#CCC7D1"/>
    </linearGradient>
    <linearGradient id="paint4_linear_337_3625" x1="18.329" y1="4.24395" x2="17.736" y2="4.82195" gradientUnits="userSpaceOnUse">
      <stop offset="0.119" stopColor="#DBDADC"/>
      <stop offset="0.577" stopColor="#CBC7D0" stopOpacity="0"/>
    </linearGradient>
    <linearGradient id="paint5_linear_337_3625" x1="4.69995" y1="10.6651" x2="17.57" y2="10.6651" gradientUnits="userSpaceOnUse">
      <stop stopColor="#9C96A2"/>
      <stop offset="1" stopColor="#9A95A1"/>
    </linearGradient>
    <linearGradient id="paint6_linear_337_3625" x1="4.69995" y1="13.4404" x2="17.57" y2="13.4404" gradientUnits="userSpaceOnUse">
      <stop stopColor="#9C96A2"/>
      <stop offset="1" stopColor="#9A95A1"/>
    </linearGradient>
    <linearGradient id="paint7_linear_337_3625" x1="4.69995" y1="16.2149" x2="17.57" y2="16.2149" gradientUnits="userSpaceOnUse">
      <stop stopColor="#9C96A2"/>
      <stop offset="1" stopColor="#9A95A1"/>
    </linearGradient>
    <linearGradient id="paint8_linear_337_3625" x1="4.69995" y1="18.9902" x2="13.01" y2="18.9902" gradientUnits="userSpaceOnUse">
      <stop stopColor="#9C96A2"/>
      <stop offset="1" stopColor="#9A95A1"/>
    </linearGradient>
    <linearGradient id="paint9_linear_337_3625" x1="21.4449" y1="12.0381" x2="21.4449" y2="14.8041" gradientUnits="userSpaceOnUse">
      <stop stopColor="#E0437B"/>
      <stop offset="1" stopColor="#DC4369"/>
    </linearGradient>
    <linearGradient id="paint10_linear_337_3625" x1="19.3869" y1="12.7881" x2="19.7769" y2="13.1011" gradientUnits="userSpaceOnUse">
      <stop offset="0.263" stopColor="#CA4A72"/>
      <stop offset="1" stopColor="#CA4A72" stopOpacity="0"/>
    </linearGradient>
    <linearGradient id="paint11_linear_337_3625" x1="24.43" y1="18.9912" x2="24.43" y2="21.7572" gradientUnits="userSpaceOnUse">
      <stop stopColor="#E4BD58"/>
      <stop offset="1" stopColor="#D89D52"/>
    </linearGradient>
    <linearGradient id="paint12_linear_337_3625" x1="22.371" y1="19.7412" x2="22.855" y2="20.1012" gradientUnits="userSpaceOnUse">
      <stop offset="0.263" stopColor="#AB9365"/>
      <stop offset="1" stopColor="#E3B758" stopOpacity="0"/>
    </linearGradient>
  </defs>
</svg>