<svg width="80" height="80" viewBox="0 0 80 80" fill="none" xmlns="http://www.w3.org/2000/svg">
<circle cx="40" cy="40" r="39.5" stroke="#6C7072"/>
<path d="M40.5 18.3828C43.1676 18.3828 45.726 19.4425 47.6123 21.3288C49.4986 23.2151 50.5583 25.7735 50.5583 28.4411C50.5583 31.1088 49.4986 33.6672 47.6123 35.5535C45.726 37.4398 43.1676 38.4995 40.5 38.4995C37.8323 38.4995 35.274 37.4398 33.3877 35.5535C31.5013 33.6672 30.4416 31.1088 30.4416 28.4411C30.4416 25.7735 31.5013 23.2151 33.3877 21.3288C35.274 19.4425 37.8323 18.3828 40.5 18.3828ZM40.5 58.6161C40.5 58.6161 60.6166 58.6161 60.6166 53.587C60.6166 47.552 50.8098 41.0141 40.5 41.0141C30.1902 41.0141 20.3833 47.552 20.3833 53.587C20.3833 58.6161 40.5 58.6161 40.5 58.6161Z" fill="#777777"/>
</svg>
