<svg width="125" height="61" viewBox="0 0 125 61" fill="none" xmlns="http://www.w3.org/2000/svg">
<path opacity="0.67" d="M17.0312 19.25C16.6562 16.75 14.7344 15.2344 12.0938 15.2188C8.57812 15.2344 6.25 17.9219 6.25 22.6875C6.25 27.5625 8.60938 30.1406 12.0625 30.1562C14.6406 30.1406 16.5781 28.7344 17.0312 26.2812L21.7812 26.3125C21.2656 30.5 17.75 34.3125 12 34.3125C5.95312 34.3125 1.46875 30.0469 1.46875 22.6875C1.46875 15.2969 6.03125 11.0625 12 11.0625C17.2188 11.0625 21.1562 14.0469 21.7812 19.25H17.0312ZM29.5938 24.1875V34H24.9688V11.375H29.4688V20H29.6562C30.4375 18.0156 32.1406 16.8125 34.7188 16.8125C38.2656 16.8125 40.5938 19.2031 40.5938 23.1875V34H35.9688V24C35.9688 21.8906 34.8438 20.6562 32.9062 20.6562C30.9531 20.6562 29.5938 21.9531 29.5938 24.1875ZM51.8438 34.3438C46.6406 34.3281 43.4531 30.9688 43.4688 25.5938C43.4531 20.3594 46.6875 16.8125 51.6562 16.8125C56.1094 16.8125 59.625 19.625 59.625 25.4062V26.7188H48.0312C48.0312 29.2812 49.5469 30.8594 51.9375 30.875C53.5156 30.8594 54.6406 30.1719 55.0938 29.1562H59.5C58.8438 32.2969 56.0312 34.3281 51.8438 34.3438ZM48.0312 23.8125H55.25C55.2344 21.75 53.8125 20.2656 51.75 20.2812C49.625 20.2656 48.125 21.8594 48.0312 23.8125ZM70.1562 34.3438C64.9531 34.3281 61.8281 30.7344 61.8438 25.5625C61.8281 20.375 65.0156 16.8125 70.1562 16.8125C74.5312 16.8125 77.5 19.3594 77.6875 23.25H73.3438C73.0625 21.5781 71.9688 20.4219 70.2188 20.4062C68 20.4219 66.5312 22.2812 66.5312 25.5C66.5312 28.7812 67.9688 30.6562 70.2188 30.6562C71.8438 30.6562 73.0469 29.6406 73.3438 27.8438H77.6875C77.4844 31.6875 74.6562 34.3281 70.1562 34.3438ZM80.5625 34V11.375H85.1875V23.5312H85.4375L90.9375 17.0312H96.25L89.9219 24.375L96.5938 34H91.1562L86.4844 27.0938L85.1875 28.5625V34H80.5625ZM103.188 11.375V34H98.5V11.375H103.188ZM111.531 24.1875V34H106.906V17.0312H111.312V20H111.5C112.266 18.0469 114.078 16.8125 116.594 16.8125C120.141 16.8125 122.453 19.2344 122.438 23.1875V34H117.844V24C117.828 21.9062 116.703 20.6562 114.781 20.6562C112.859 20.6562 111.531 21.9531 111.531 24.1875Z" fill="#00C537"/>
<g clipPath="url(#clip0_1356_708)">
<path d="M105.358 2.20234L100.585 6.97565L98.6438 5.03391C98.5291 4.91617 98.3924 4.82216 98.2414 4.75729C98.0889 4.69178 97.9249 4.6573 97.7589 4.65586C97.5929 4.65442 97.4283 4.68604 97.2747 4.74889C97.1211 4.81174 96.9815 4.90456 96.8642 5.02193C96.7468 5.13929 96.654 5.27886 96.5911 5.43248C96.5283 5.5861 96.4967 5.7507 96.4981 5.91667C96.4995 6.08265 96.534 6.24667 96.5995 6.39918C96.6644 6.55019 96.7584 6.68691 96.8762 6.80153L99.6664 9.59129C99.6664 9.59131 99.6665 9.59134 99.6665 9.59136C99.7872 9.71208 99.9305 9.80783 100.088 9.87317C100.246 9.93852 100.415 9.97216 100.586 9.97216C100.757 9.97216 100.926 9.93852 101.083 9.87317C101.241 9.80783 101.384 9.71206 101.505 9.59133C101.505 9.59132 101.505 9.5913 101.505 9.59129L107.127 3.96983L107.127 3.96978C107.361 3.73537 107.493 3.41748 107.493 3.08603C107.493 2.75457 107.361 2.43669 107.127 2.20228C107.011 2.08615 106.873 1.99402 106.721 1.93116C106.569 1.8683 106.407 1.83594 106.243 1.83594C106.078 1.83594 105.916 1.8683 105.764 1.93116C105.612 1.99402 105.475 2.08613 105.358 2.20224C105.358 2.20227 105.358 2.2023 105.358 2.20234Z" fill="#00C537" stroke="#00C537"/>
</g>
<path d="M33.5938 41.1719V39.6875H42.3594V41.1719H38.8438V51H37.125V41.1719H33.5938ZM46.3906 51.1719C43.8906 51.1719 42.3516 49.4453 42.3594 46.8125C42.3516 44.2031 43.9141 42.4062 46.2812 42.4062C48.2109 42.4062 50.0469 43.6016 50.0469 46.6719V47.2656H44.0156C44.0625 48.8828 45.0156 49.7969 46.4062 49.7969C47.3516 49.7969 47.9688 49.3906 48.25 48.875H49.9375C49.5625 50.25 48.2578 51.1719 46.3906 51.1719ZM44.0234 46.0156H48.4062C48.4062 44.7266 47.5703 43.7734 46.2969 43.7812C44.9609 43.7734 44.0938 44.8203 44.0234 46.0156ZM51.3125 48.6094C51.3047 46.6719 52.9531 46.1719 54.4844 46.0625C55.0469 46.0312 56.3203 45.9609 56.7109 45.9453L56.7031 45.2656C56.7109 44.3047 56.1172 43.75 54.9844 43.75C54 43.75 53.4062 44.2031 53.2344 44.8281H51.5781C51.7266 43.4219 53.0391 42.4062 55.0469 42.4062C56.3984 42.4062 58.3672 42.8984 58.375 45.3594V51H56.75V49.8438H56.6875C56.3594 50.4766 55.5781 51.1875 54.1719 51.1875C52.5625 51.1875 51.3047 50.2656 51.3125 48.6094ZM52.9375 48.625C52.9375 49.4375 53.6094 49.8516 54.5469 49.8594C55.9062 49.8516 56.7188 48.9453 56.7188 47.9375L56.7109 47.1641C56.3281 47.1875 55.1172 47.2734 54.7188 47.2969C53.625 47.375 52.9375 47.7891 52.9375 48.625ZM63.9844 51.1719C61.5078 51.1719 60.0078 49.3516 60.0156 46.7969C60.0078 44.2109 61.5625 42.4062 63.9531 42.4062C65.8906 42.4062 67.2891 43.5469 67.4688 45.2656H65.8438C65.6719 44.4688 65.0391 43.8047 63.9844 43.7969C62.6094 43.8047 61.6875 44.9453 61.6875 46.75C61.6875 48.6094 62.5859 49.7578 63.9844 49.75C64.9297 49.7578 65.6328 49.2266 65.8438 48.3125H67.4688C67.2891 49.9609 65.9844 51.1719 63.9844 51.1719ZM70.7188 45.9688V51H69.0469V39.6875H70.6875V43.9062H70.7969C71.1953 42.9844 71.9922 42.4062 73.3125 42.4062C75.0547 42.4062 76.2188 43.4844 76.2188 45.6094V51H74.5469V45.8125C74.5469 44.5625 73.875 43.8438 72.75 43.8438C71.5703 43.8438 70.7188 44.6172 70.7188 45.9688ZM81.8906 51.1719C79.3906 51.1719 77.8516 49.4453 77.8594 46.8125C77.8516 44.2031 79.4141 42.4062 81.7812 42.4062C83.7109 42.4062 85.5469 43.6016 85.5469 46.6719V47.2656H79.5156C79.5625 48.8828 80.5156 49.7969 81.9062 49.7969C82.8516 49.7969 83.4688 49.3906 83.75 48.875H85.4375C85.0625 50.25 83.7578 51.1719 81.8906 51.1719ZM79.5234 46.0156H83.9062C83.9062 44.7266 83.0703 43.7734 81.7969 43.7812C80.4609 43.7734 79.5938 44.8203 79.5234 46.0156ZM87.2031 51V42.5156H88.8125V43.8594H88.9062C89.2188 42.9531 90.0703 42.3828 91.0625 42.3906C91.2656 42.3828 91.5938 42.4062 91.7656 42.4219V44.0156C91.625 43.9844 91.2344 43.9141 90.8906 43.9219C89.7344 43.9141 88.875 44.7188 88.875 45.8281V51H87.2031Z" fill="#54D879"/>
<defs>
<clipPath id="clip0_1356_708">
<rect width="12" height="12" fill="white" transform="translate(96)"/>
</clipPath>
</defs>
</svg>
