<svg xmlns="http://www.w3.org/2000/svg" width="32" height="32" viewBox="0 0 32 32" fill="none">
  <g filter="url(#filter0_d_337_3485)">
    <path d="M30.0149 15.8305H2.01489L3.73489 11.5205C3.90489 11.0905 4.31489 10.8105 4.77489 10.8105H27.2549C27.7149 10.8105 28.1249 11.0905 28.2949 11.5205L30.0149 15.8305Z" fill="url(#paint0_linear_337_3485)"/>
    <path d="M30.0149 15.8305H2.01489L3.73489 11.5205C3.90489 11.0905 4.31489 10.8105 4.77489 10.8105H27.2549C27.7149 10.8105 28.1249 11.0905 28.2949 11.5205L30.0149 15.8305Z" fill="url(#paint1_linear_337_3485)"/>
  </g>
  <g filter="url(#filter1_dd_337_3485)">
    <path d="M17.5249 3.15039H20.2149C20.3749 3.15039 20.5049 3.28039 20.5049 3.44039V4.86039C20.5049 5.02039 20.3749 5.15039 20.2149 5.15039H18.1349C17.8049 5.15039 17.5349 4.88039 17.5349 4.55039V3.15039H17.5249Z" fill="url(#paint2_linear_337_3485)"/>
  </g>
  <g filter="url(#filter2_f_337_3485)">
    <path d="M19.1459 4.01465H17.7329C17.6694 4.01465 17.6179 4.06614 17.6179 4.12965C17.6179 4.19316 17.6694 4.24465 17.7329 4.24465H19.1459C19.2094 4.24465 19.2609 4.19316 19.2609 4.12965C19.2609 4.06614 19.2094 4.01465 19.1459 4.01465Z" fill="#51834C"/>
  </g>
  <g filter="url(#filter3_d_337_3485)">
    <path d="M19.1149 4.15039H16.0149V2.15039H19.1149C19.3349 2.15039 19.5149 2.33039 19.5149 2.55039V3.74039C19.5249 3.97039 19.3449 4.15039 19.1149 4.15039Z" fill="#4AD680"/>
    <path d="M19.1149 4.15039H16.0149V2.15039H19.1149C19.3349 2.15039 19.5149 2.33039 19.5149 2.55039V3.74039C19.5249 3.97039 19.3449 4.15039 19.1149 4.15039Z" fill="url(#paint3_linear_337_3485)"/>
  </g>
  <path d="M16.0549 6.65031H15.9949C15.8703 6.65031 15.7507 6.60079 15.6626 6.51265C15.5744 6.42451 15.5249 6.30496 15.5249 6.18031V2.29031C15.5249 2.03031 15.7349 1.82031 15.9949 1.82031H16.0549C16.3149 1.82031 16.5249 2.03031 16.5249 2.29031V6.18031C16.5249 6.44031 16.3149 6.65031 16.0549 6.65031Z" fill="url(#paint4_radial_337_3485)"/>
  <path d="M16.0549 6.65031H15.9949C15.8703 6.65031 15.7507 6.60079 15.6626 6.51265C15.5744 6.42451 15.5249 6.30496 15.5249 6.18031V2.29031C15.5249 2.03031 15.7349 1.82031 15.9949 1.82031H16.0549C16.3149 1.82031 16.5249 2.03031 16.5249 2.29031V6.18031C16.5249 6.44031 16.3149 6.65031 16.0549 6.65031Z" fill="url(#paint5_radial_337_3485)"/>
  <path d="M9.04989 15.8203H2.01489V29.8203H9.04989V15.8203Z" fill="url(#paint6_linear_337_3485)"/>
  <path d="M9.04989 15.8203H2.01489V29.8203H9.04989V15.8203Z" fill="url(#paint7_linear_337_3485)"/>
  <path d="M9.04989 15.8203H2.01489V29.8203H9.04989V15.8203Z" fill="url(#paint8_linear_337_3485)"/>
  <path d="M9.04989 15.8203H2.01489V29.8203H9.04989V15.8203Z" fill="url(#paint9_linear_337_3485)"/>
  <path d="M23.0149 15.8203H30.0149V29.8203H23.0149V15.8203Z" fill="url(#paint10_linear_337_3485)"/>
  <path d="M23.0149 15.8203H30.0149V29.8203H23.0149V15.8203Z" fill="url(#paint11_linear_337_3485)"/>
  <path d="M23.0149 15.8203H30.0149V29.8203H23.0149V15.8203Z" fill="url(#paint12_linear_337_3485)"/>
  <path d="M23.0149 15.8203H30.0149V29.8203H23.0149V15.8203Z" fill="url(#paint13_radial_337_3485)"/>
  <g filter="url(#filter4_f_337_3485)">
    <path d="M7.03589 16H9.73889V17.402H7.03589V16Z" fill="#8E5745"/>
  </g>
  <path d="M22.7349 13.7801L16.5849 7.72008C16.5115 7.64631 16.4242 7.58776 16.3281 7.54782C16.232 7.50787 16.129 7.4873 16.0249 7.4873C15.9208 7.4873 15.8178 7.50787 15.7217 7.54782C15.6256 7.58776 15.5383 7.64631 15.4649 7.72008L9.3149 13.7801C9.13317 13.9602 9.02909 14.2042 9.0249 14.4601V29.8301H23.0249V14.4501C23.0149 14.2001 22.9149 13.9601 22.7349 13.7801Z" fill="url(#paint14_linear_337_3485)"/>
  <path d="M22.7349 13.7801L16.5849 7.72008C16.5115 7.64631 16.4242 7.58776 16.3281 7.54782C16.232 7.50787 16.129 7.4873 16.0249 7.4873C15.9208 7.4873 15.8178 7.50787 15.7217 7.54782C15.6256 7.58776 15.5383 7.64631 15.4649 7.72008L9.3149 13.7801C9.13317 13.9602 9.02909 14.2042 9.0249 14.4601V29.8301H23.0249V14.4501C23.0149 14.2001 22.9149 13.9601 22.7349 13.7801Z" fill="url(#paint15_linear_337_3485)"/>
  <path d="M22.7349 13.7801L16.5849 7.72008C16.5115 7.64631 16.4242 7.58776 16.3281 7.54782C16.232 7.50787 16.129 7.4873 16.0249 7.4873C15.9208 7.4873 15.8178 7.50787 15.7217 7.54782C15.6256 7.58776 15.5383 7.64631 15.4649 7.72008L9.3149 13.7801C9.13317 13.9602 9.02909 14.2042 9.0249 14.4601V29.8301H23.0249V14.4501C23.0149 14.2001 22.9149 13.9601 22.7349 13.7801Z" fill="url(#paint16_linear_337_3485)"/>
  <path d="M22.7349 13.7801L16.5849 7.72008C16.5115 7.64631 16.4242 7.58776 16.3281 7.54782C16.232 7.50787 16.129 7.4873 16.0249 7.4873C15.9208 7.4873 15.8178 7.50787 15.7217 7.54782C15.6256 7.58776 15.5383 7.64631 15.4649 7.72008L9.3149 13.7801C9.13317 13.9602 9.02909 14.2042 9.0249 14.4601V29.8301H23.0249V14.4501C23.0149 14.2001 22.9149 13.9601 22.7349 13.7801Z" fill="url(#paint17_linear_337_3485)"/>
  <path d="M22.7349 13.7801L16.5849 7.72008C16.5115 7.64631 16.4242 7.58776 16.3281 7.54782C16.232 7.50787 16.129 7.4873 16.0249 7.4873C15.9208 7.4873 15.8178 7.50787 15.7217 7.54782C15.6256 7.58776 15.5383 7.64631 15.4649 7.72008L9.3149 13.7801C9.13317 13.9602 9.02909 14.2042 9.0249 14.4601V29.8301H23.0249V14.4501C23.0149 14.2001 22.9149 13.9601 22.7349 13.7801Z" fill="url(#paint18_linear_337_3485)"/>
  <path d="M22.7349 13.7801L16.5849 7.72008C16.5115 7.64631 16.4242 7.58776 16.3281 7.54782C16.232 7.50787 16.129 7.4873 16.0249 7.4873C15.9208 7.4873 15.8178 7.50787 15.7217 7.54782C15.6256 7.58776 15.5383 7.64631 15.4649 7.72008L9.3149 13.7801C9.13317 13.9602 9.02909 14.2042 9.0249 14.4601V29.8301H23.0249V14.4501C23.0149 14.2001 22.9149 13.9601 22.7349 13.7801Z" fill="url(#paint19_radial_337_3485)"/>
  <path d="M22.7349 13.7801L16.5849 7.72008C16.5115 7.64631 16.4242 7.58776 16.3281 7.54782C16.232 7.50787 16.129 7.4873 16.0249 7.4873C15.9208 7.4873 15.8178 7.50787 15.7217 7.54782C15.6256 7.58776 15.5383 7.64631 15.4649 7.72008L9.3149 13.7801C9.13317 13.9602 9.02909 14.2042 9.0249 14.4601V29.8301H23.0249V14.4501C23.0149 14.2001 22.9149 13.9601 22.7349 13.7801Z" fill="url(#paint20_radial_337_3485)"/>
  <g filter="url(#filter5_d_337_3485)">
    <path d="M25.7349 20.8203H24.2949C24.1449 20.8203 24.0149 20.6903 24.0149 20.5403V18.1003C24.0149 17.9503 24.1449 17.8203 24.2949 17.8203H25.7349C25.8849 17.8203 26.0149 17.9503 26.0149 18.1003V20.5403C26.0149 20.7003 25.8949 20.8203 25.7349 20.8203Z" fill="url(#paint21_linear_337_3485)"/>
    <path d="M25.7349 20.8203H24.2949C24.1449 20.8203 24.0149 20.6903 24.0149 20.5403V18.1003C24.0149 17.9503 24.1449 17.8203 24.2949 17.8203H25.7349C25.8849 17.8203 26.0149 17.9503 26.0149 18.1003V20.5403C26.0149 20.7003 25.8949 20.8203 25.7349 20.8203Z" fill="url(#paint22_linear_337_3485)"/>
  </g>
  <g filter="url(#filter6_d_337_3485)">
    <path d="M28.7349 20.8203H27.2949C27.1449 20.8203 27.0149 20.6903 27.0149 20.5403V18.1003C27.0149 17.9503 27.1449 17.8203 27.2949 17.8203H28.7349C28.8849 17.8203 29.0149 17.9503 29.0149 18.1003V20.5403C29.0149 20.7003 28.8949 20.8203 28.7349 20.8203Z" fill="url(#paint23_linear_337_3485)"/>
    <path d="M28.7349 20.8203H27.2949C27.1449 20.8203 27.0149 20.6903 27.0149 20.5403V18.1003C27.0149 17.9503 27.1449 17.8203 27.2949 17.8203H28.7349C28.8849 17.8203 29.0149 17.9503 29.0149 18.1003V20.5403C29.0149 20.7003 28.8949 20.8203 28.7349 20.8203Z" fill="url(#paint24_linear_337_3485)"/>
  </g>
  <g filter="url(#filter7_d_337_3485)">
    <path d="M25.7349 24.8203H24.2949C24.1449 24.8203 24.0149 24.6903 24.0149 24.5403V22.1003C24.0149 21.9503 24.1449 21.8203 24.2949 21.8203H25.7349C25.8849 21.8203 26.0149 21.9503 26.0149 22.1003V24.5403C26.0149 24.7003 25.8949 24.8203 25.7349 24.8203Z" fill="url(#paint25_linear_337_3485)"/>
    <path d="M25.7349 24.8203H24.2949C24.1449 24.8203 24.0149 24.6903 24.0149 24.5403V22.1003C24.0149 21.9503 24.1449 21.8203 24.2949 21.8203H25.7349C25.8849 21.8203 26.0149 21.9503 26.0149 22.1003V24.5403C26.0149 24.7003 25.8949 24.8203 25.7349 24.8203Z" fill="url(#paint26_linear_337_3485)"/>
  </g>
  <g filter="url(#filter8_d_337_3485)">
    <path d="M28.7349 24.8203H27.2949C27.1449 24.8203 27.0149 24.6903 27.0149 24.5403V22.1003C27.0149 21.9503 27.1449 21.8203 27.2949 21.8203H28.7349C28.8849 21.8203 29.0149 21.9503 29.0149 22.1003V24.5403C29.0149 24.7003 28.8949 24.8203 28.7349 24.8203Z" fill="url(#paint27_linear_337_3485)"/>
    <path d="M28.7349 24.8203H27.2949C27.1449 24.8203 27.0149 24.6903 27.0149 24.5403V22.1003C27.0149 21.9503 27.1449 21.8203 27.2949 21.8203H28.7349C28.8849 21.8203 29.0149 21.9503 29.0149 22.1003V24.5403C29.0149 24.7003 28.8949 24.8203 28.7349 24.8203Z" fill="url(#paint28_linear_337_3485)"/>
  </g>
  <g filter="url(#filter9_d_337_3485)">
    <path d="M4.75491 20.8203H3.31491C3.16491 20.8203 3.03491 20.6903 3.03491 20.5403V18.1003C3.03491 17.9503 3.16491 17.8203 3.31491 17.8203H4.75491C4.90491 17.8203 5.03491 17.9503 5.03491 18.1003V20.5403C5.03491 20.7003 4.91491 20.8203 4.75491 20.8203Z" fill="url(#paint29_linear_337_3485)"/>
    <path d="M4.75491 20.8203H3.31491C3.16491 20.8203 3.03491 20.6903 3.03491 20.5403V18.1003C3.03491 17.9503 3.16491 17.8203 3.31491 17.8203H4.75491C4.90491 17.8203 5.03491 17.9503 5.03491 18.1003V20.5403C5.03491 20.7003 4.91491 20.8203 4.75491 20.8203Z" fill="url(#paint30_linear_337_3485)"/>
  </g>
  <g filter="url(#filter10_d_337_3485)">
    <path d="M7.75491 20.8203H6.31491C6.16491 20.8203 6.03491 20.6903 6.03491 20.5403V18.1003C6.03491 17.9503 6.16491 17.8203 6.31491 17.8203H7.75491C7.90491 17.8203 8.03491 17.9503 8.03491 18.1003V20.5403C8.03491 20.7003 7.91491 20.8203 7.75491 20.8203Z" fill="url(#paint31_linear_337_3485)"/>
    <path d="M7.75491 20.8203H6.31491C6.16491 20.8203 6.03491 20.6903 6.03491 20.5403V18.1003C6.03491 17.9503 6.16491 17.8203 6.31491 17.8203H7.75491C7.90491 17.8203 8.03491 17.9503 8.03491 18.1003V20.5403C8.03491 20.7003 7.91491 20.8203 7.75491 20.8203Z" fill="url(#paint32_linear_337_3485)"/>
  </g>
  <g filter="url(#filter11_d_337_3485)">
    <path d="M4.75491 24.8203H3.31491C3.16491 24.8203 3.03491 24.6903 3.03491 24.5403V22.1003C3.03491 21.9503 3.16491 21.8203 3.31491 21.8203H4.75491C4.90491 21.8203 5.03491 21.9503 5.03491 22.1003V24.5403C5.03491 24.7003 4.91491 24.8203 4.75491 24.8203Z" fill="url(#paint33_linear_337_3485)"/>
    <path d="M4.75491 24.8203H3.31491C3.16491 24.8203 3.03491 24.6903 3.03491 24.5403V22.1003C3.03491 21.9503 3.16491 21.8203 3.31491 21.8203H4.75491C4.90491 21.8203 5.03491 21.9503 5.03491 22.1003V24.5403C5.03491 24.7003 4.91491 24.8203 4.75491 24.8203Z" fill="url(#paint34_linear_337_3485)"/>
  </g>
  <g filter="url(#filter12_d_337_3485)">
    <path d="M7.75491 24.8203H6.31491C6.16491 24.8203 6.03491 24.6903 6.03491 24.5403V22.1003C6.03491 21.9503 6.16491 21.8203 6.31491 21.8203H7.75491C7.90491 21.8203 8.03491 21.9503 8.03491 22.1003V24.5403C8.03491 24.7003 7.91491 24.8203 7.75491 24.8203Z" fill="url(#paint35_linear_337_3485)"/>
    <path d="M7.75491 24.8203H6.31491C6.16491 24.8203 6.03491 24.6903 6.03491 24.5403V22.1003C6.03491 21.9503 6.16491 21.8203 6.31491 21.8203H7.75491C7.90491 21.8203 8.03491 21.9503 8.03491 22.1003V24.5403C8.03491 24.7003 7.91491 24.8203 7.75491 24.8203Z" fill="url(#paint36_linear_337_3485)"/>
  </g>
  <g filter="url(#filter13_dd_337_3485)">
    <path d="M16.0149 17.8203C16.4089 17.8203 16.799 17.7427 17.1629 17.592C17.5269 17.4412 17.8576 17.2202 18.1362 16.9416C18.4148 16.6631 18.6358 16.3323 18.7865 15.9684C18.9373 15.6044 19.0149 15.2143 19.0149 14.8203C19.0149 14.4263 18.9373 14.0362 18.7865 13.6723C18.6358 13.3083 18.4148 12.9776 18.1362 12.699C17.8576 12.4204 17.5269 12.1994 17.1629 12.0487C16.799 11.8979 16.4089 11.8203 16.0149 11.8203C15.2192 11.8203 14.4562 12.1364 13.8936 12.699C13.331 13.2616 13.0149 14.0247 13.0149 14.8203C13.0149 15.616 13.331 16.379 13.8936 16.9416C14.4562 17.5042 15.2192 17.8203 16.0149 17.8203Z" fill="#EDDEF1"/>
  </g>
  <path d="M16.0149 15.2303C15.7349 15.2303 15.5149 15.0103 15.5149 14.7303V13.3203C15.5149 13.0403 15.7349 12.8203 16.0149 12.8203C16.2949 12.8203 16.5149 13.0403 16.5149 13.3203V14.7303C16.5149 15.0103 16.2849 15.2303 16.0149 15.2303Z" fill="url(#paint37_radial_337_3485)"/>
  <path d="M16.0149 15.2303C15.7349 15.2303 15.5149 15.0103 15.5149 14.7303V13.3203C15.5149 13.0403 15.7349 12.8203 16.0149 12.8203C16.2949 12.8203 16.5149 13.0403 16.5149 13.3203V14.7303C16.5149 15.0103 16.2849 15.2303 16.0149 15.2303Z" fill="url(#paint38_radial_337_3485)"/>
  <path d="M17.4949 16.8201C17.4293 16.8209 17.3643 16.8079 17.304 16.7821C17.2437 16.7563 17.1895 16.7181 17.1449 16.6701L15.6649 15.1901C15.4649 14.9901 15.4649 14.6801 15.6649 14.4801C15.8649 14.2801 16.1749 14.2801 16.3749 14.4801L17.8549 15.9601C18.0549 16.1601 18.0549 16.4701 17.8549 16.6701C17.7449 16.7701 17.6249 16.8201 17.4949 16.8201Z" fill="url(#paint39_linear_337_3485)"/>
  <g filter="url(#filter14_dd_337_3485)">
    <path d="M24.0149 13.9606C24.0149 13.6606 23.8949 13.3806 23.6849 13.1706L16.6549 6.14061C16.4844 5.9723 16.2545 5.87793 16.0149 5.87793C15.7753 5.87793 15.5454 5.9723 15.3749 6.14061L8.34489 13.1706C8.13489 13.3806 8.01489 13.6706 8.01489 13.9606V15.8306C8.01489 16.1106 8.23489 16.3306 8.51489 16.3306C8.79489 16.3306 9.01489 16.1106 9.01489 15.8306V14.5706C9.01489 14.3106 9.11489 14.0606 9.30489 13.8806L15.4549 7.73061C15.5283 7.65683 15.6156 7.59829 15.7117 7.55834C15.8078 7.5184 15.9108 7.49783 16.0149 7.49783C16.119 7.49783 16.222 7.5184 16.3181 7.55834C16.4142 7.59829 16.5015 7.65683 16.5749 7.73061L22.7249 13.8806C22.9049 14.0606 23.0149 14.3106 23.0149 14.5706V15.8306C23.0149 16.1106 23.2349 16.3306 23.5149 16.3306C23.7949 16.3306 24.0149 16.1106 24.0149 15.8306C24.0149 15.2106 24.0119 14.5826 24.0149 13.9606Z" fill="url(#paint40_linear_337_3485)"/>
  </g>
  <path d="M24.0149 13.9606C24.0149 13.6606 23.8949 13.3806 23.6849 13.1706L16.6549 6.14061C16.4844 5.9723 16.2545 5.87793 16.0149 5.87793C15.7753 5.87793 15.5454 5.9723 15.3749 6.14061L8.34489 13.1706C8.13489 13.3806 8.01489 13.6706 8.01489 13.9606V15.7806H8.02489C8.02489 15.8006 8.01489 15.8106 8.01489 15.8306C8.01489 16.1106 8.23489 16.3306 8.51489 16.3306C8.79489 16.3306 9.01489 16.1106 9.01489 15.8306C9.01489 15.8106 9.00489 15.8006 9.00489 15.7806H9.01489V14.5706C9.01489 14.3106 9.11489 14.0606 9.30489 13.8806L15.4549 7.73061C15.5283 7.65683 15.6156 7.59829 15.7117 7.55834C15.8078 7.5184 15.9108 7.49783 16.0149 7.49783C16.119 7.49783 16.222 7.5184 16.3181 7.55834C16.4142 7.59829 16.5015 7.65683 16.5749 7.73061L22.7249 13.8806C22.9049 14.0606 23.0149 14.3106 23.0149 14.5706V15.8306C23.0149 16.1106 23.2349 16.3306 23.5149 16.3306C23.7949 16.3306 24.0149 16.1106 24.0149 15.8306C24.0149 15.2106 24.0119 14.5826 24.0149 13.9606Z" fill="url(#paint41_linear_337_3485)"/>
  <path d="M24.0149 13.9606C24.0149 13.6606 23.8949 13.3806 23.6849 13.1706L16.6549 6.14061C16.4844 5.9723 16.2545 5.87793 16.0149 5.87793C15.7753 5.87793 15.5454 5.9723 15.3749 6.14061L8.34489 13.1706C8.13489 13.3806 8.01489 13.6706 8.01489 13.9606V15.7806H8.02489C8.02489 15.8006 8.01489 15.8106 8.01489 15.8306C8.01489 16.1106 8.23489 16.3306 8.51489 16.3306C8.79489 16.3306 9.01489 16.1106 9.01489 15.8306C9.01489 15.8106 9.00489 15.8006 9.00489 15.7806H9.01489V14.5706C9.01489 14.3106 9.11489 14.0606 9.30489 13.8806L15.4549 7.73061C15.5283 7.65683 15.6156 7.59829 15.7117 7.55834C15.8078 7.5184 15.9108 7.49783 16.0149 7.49783C16.119 7.49783 16.222 7.5184 16.3181 7.55834C16.4142 7.59829 16.5015 7.65683 16.5749 7.73061L22.7249 13.8806C22.9049 14.0606 23.0149 14.3106 23.0149 14.5706V15.8306C23.0149 16.1106 23.2349 16.3306 23.5149 16.3306C23.7949 16.3306 24.0149 16.1106 24.0149 15.8306C24.0149 15.2106 24.0119 14.5826 24.0149 13.9606Z" fill="url(#paint42_linear_337_3485)"/>
  <path d="M24.0149 13.9606C24.0149 13.6606 23.8949 13.3806 23.6849 13.1706L16.6549 6.14061C16.4844 5.9723 16.2545 5.87793 16.0149 5.87793C15.7753 5.87793 15.5454 5.9723 15.3749 6.14061L8.34489 13.1706C8.13489 13.3806 8.01489 13.6706 8.01489 13.9606V15.7806H8.02489C8.02489 15.8006 8.01489 15.8106 8.01489 15.8306C8.01489 16.1106 8.23489 16.3306 8.51489 16.3306C8.79489 16.3306 9.01489 16.1106 9.01489 15.8306C9.01489 15.8106 9.00489 15.8006 9.00489 15.7806H9.01489V14.5706C9.01489 14.3106 9.11489 14.0606 9.30489 13.8806L15.4549 7.73061C15.5283 7.65683 15.6156 7.59829 15.7117 7.55834C15.8078 7.5184 15.9108 7.49783 16.0149 7.49783C16.119 7.49783 16.222 7.5184 16.3181 7.55834C16.4142 7.59829 16.5015 7.65683 16.5749 7.73061L22.7249 13.8806C22.9049 14.0606 23.0149 14.3106 23.0149 14.5706V15.8306C23.0149 16.1106 23.2349 16.3306 23.5149 16.3306C23.7949 16.3306 24.0149 16.1106 24.0149 15.8306C24.0149 15.2106 24.0119 14.5826 24.0149 13.9606Z" fill="url(#paint43_radial_337_3485)"/>
  <g filter="url(#filter15_d_337_3485)">
    <path d="M19.0249 29.8203H12.9749V24.5203C12.9749 24.1303 13.2849 23.8203 13.6749 23.8203H18.3249C18.7149 23.8203 19.0249 24.1303 19.0249 24.5203V29.8203Z" fill="url(#paint44_linear_337_3485)"/>
    <path d="M19.0249 29.8203H12.9749V24.5203C12.9749 24.1303 13.2849 23.8203 13.6749 23.8203H18.3249C18.7149 23.8203 19.0249 24.1303 19.0249 24.5203V29.8203Z" fill="url(#paint45_linear_337_3485)"/>
  </g>
  <g filter="url(#filter16_f_337_3485)">
    <path d="M16.0498 14.8418L17.6028 16.4058" stroke="url(#paint46_linear_337_3485)" strokeWidth="0.25" strokeLinecap="round"/>
  </g>
  <g filter="url(#filter17_f_337_3485)">
    <path d="M16.3059 6.33984L23.3899 13.4438" stroke="url(#paint47_linear_337_3485)" strokeWidth="0.4" strokeLinecap="round"/>
  </g>
  <defs>
    <filter id="filter0_d_337_3485" x="1.26489" y="10.5605" width="29" height="6.01953" filterUnits="userSpaceOnUse" color-interpolation-filters="sRGB">
      <feFlood flood-opacity="0" result="BackgroundImageFix"/>
      <feColorMatrix in="SourceAlpha" type="matrix" values="0 0 0 0 0 0 0 0 0 0 0 0 0 0 0 0 0 0 127 0" result="hardAlpha"/>
      <feOffset dx="-0.25" dy="0.25"/>
      <feGaussianBlur stdDeviation="0.25"/>
      <feComposite in2="hardAlpha" operator="out"/>
      <feColorMatrix type="matrix" values="0 0 0 0 0.639216 0 0 0 0 0.435294 0 0 0 0 0.364706 0 0 0 1 0"/>
      <feBlend mode="normal" in2="BackgroundImageFix" result="effect1_dropShadow_337_3485"/>
      <feBlend mode="normal" in="SourceGraphic" in2="effect1_dropShadow_337_3485" result="shape"/>
    </filter>
    <filter id="filter1_dd_337_3485" x="17.1249" y="2.70039" width="3.82998" height="2.85" filterUnits="userSpaceOnUse" color-interpolation-filters="sRGB">
      <feFlood flood-opacity="0" result="BackgroundImageFix"/>
      <feColorMatrix in="SourceAlpha" type="matrix" values="0 0 0 0 0 0 0 0 0 0 0 0 0 0 0 0 0 0 127 0" result="hardAlpha"/>
      <feOffset dx="-0.15" dy="0.15"/>
      <feGaussianBlur stdDeviation="0.125"/>
      <feComposite in2="hardAlpha" operator="out"/>
      <feColorMatrix type="matrix" values="0 0 0 0 0.843137 0 0 0 0 1 0 0 0 0 0.419608 0 0 0 1 0"/>
      <feBlend mode="normal" in2="BackgroundImageFix" result="effect1_dropShadow_337_3485"/>
      <feColorMatrix in="SourceAlpha" type="matrix" values="0 0 0 0 0 0 0 0 0 0 0 0 0 0 0 0 0 0 127 0" result="hardAlpha"/>
      <feOffset dx="0.15" dy="-0.15"/>
      <feGaussianBlur stdDeviation="0.15"/>
      <feComposite in2="hardAlpha" operator="out"/>
      <feColorMatrix type="matrix" values="0 0 0 0 0.258824 0 0 0 0 0.447059 0 0 0 0 0.294118 0 0 0 1 0"/>
      <feBlend mode="normal" in2="effect1_dropShadow_337_3485" result="effect2_dropShadow_337_3485"/>
      <feBlend mode="normal" in="SourceGraphic" in2="effect2_dropShadow_337_3485" result="shape"/>
    </filter>
    <filter id="filter2_f_337_3485" x="17.5179" y="3.91465" width="1.84307" height="0.430469" filterUnits="userSpaceOnUse" color-interpolation-filters="sRGB">
      <feFlood flood-opacity="0" result="BackgroundImageFix"/>
      <feBlend mode="normal" in="SourceGraphic" in2="BackgroundImageFix" result="shape"/>
      <feGaussianBlur stdDeviation="0.05" result="effect1_foregroundBlur_337_3485"/>
    </filter>
    <filter id="filter3_d_337_3485" x="15.6149" y="2.05039" width="4.00049" height="2.5" filterUnits="userSpaceOnUse" color-interpolation-filters="sRGB">
      <feFlood flood-opacity="0" result="BackgroundImageFix"/>
      <feColorMatrix in="SourceAlpha" type="matrix" values="0 0 0 0 0 0 0 0 0 0 0 0 0 0 0 0 0 0 127 0" result="hardAlpha"/>
      <feOffset dx="-0.15" dy="0.15"/>
      <feGaussianBlur stdDeviation="0.125"/>
      <feComposite in2="hardAlpha" operator="out"/>
      <feColorMatrix type="matrix" values="0 0 0 0 0.407843 0 0 0 0 0.937255 0 0 0 0 0.603922 0 0 0 1 0"/>
      <feBlend mode="normal" in2="BackgroundImageFix" result="effect1_dropShadow_337_3485"/>
      <feBlend mode="normal" in="SourceGraphic" in2="effect1_dropShadow_337_3485" result="shape"/>
    </filter>
    <filter id="filter4_f_337_3485" x="5.03589" y="14" width="6.70288" height="5.40234" filterUnits="userSpaceOnUse" color-interpolation-filters="sRGB">
      <feFlood flood-opacity="0" result="BackgroundImageFix"/>
      <feBlend mode="normal" in="SourceGraphic" in2="BackgroundImageFix" result="shape"/>
      <feGaussianBlur stdDeviation="1" result="effect1_foregroundBlur_337_3485"/>
    </filter>
    <filter id="filter5_d_337_3485" x="23.5649" y="17.5703" width="2.6" height="3.6" filterUnits="userSpaceOnUse" color-interpolation-filters="sRGB">
      <feFlood flood-opacity="0" result="BackgroundImageFix"/>
      <feColorMatrix in="SourceAlpha" type="matrix" values="0 0 0 0 0 0 0 0 0 0 0 0 0 0 0 0 0 0 127 0" result="hardAlpha"/>
      <feOffset dx="-0.15" dy="0.05"/>
      <feGaussianBlur stdDeviation="0.15"/>
      <feComposite in2="hardAlpha" operator="out"/>
      <feColorMatrix type="matrix" values="0 0 0 0 0.0705882 0 0 0 0 0.466667 0 0 0 0 0.815686 0 0 0 1 0"/>
      <feBlend mode="normal" in2="BackgroundImageFix" result="effect1_dropShadow_337_3485"/>
      <feBlend mode="normal" in="SourceGraphic" in2="effect1_dropShadow_337_3485" result="shape"/>
    </filter>
    <filter id="filter6_d_337_3485" x="26.5649" y="17.5703" width="2.6" height="3.6" filterUnits="userSpaceOnUse" color-interpolation-filters="sRGB">
      <feFlood flood-opacity="0" result="BackgroundImageFix"/>
      <feColorMatrix in="SourceAlpha" type="matrix" values="0 0 0 0 0 0 0 0 0 0 0 0 0 0 0 0 0 0 127 0" result="hardAlpha"/>
      <feOffset dx="-0.15" dy="0.05"/>
      <feGaussianBlur stdDeviation="0.15"/>
      <feComposite in2="hardAlpha" operator="out"/>
      <feColorMatrix type="matrix" values="0 0 0 0 0.0705882 0 0 0 0 0.466667 0 0 0 0 0.815686 0 0 0 1 0"/>
      <feBlend mode="normal" in2="BackgroundImageFix" result="effect1_dropShadow_337_3485"/>
      <feBlend mode="normal" in="SourceGraphic" in2="effect1_dropShadow_337_3485" result="shape"/>
    </filter>
    <filter id="filter7_d_337_3485" x="23.5649" y="21.5703" width="2.6" height="3.6" filterUnits="userSpaceOnUse" color-interpolation-filters="sRGB">
      <feFlood flood-opacity="0" result="BackgroundImageFix"/>
      <feColorMatrix in="SourceAlpha" type="matrix" values="0 0 0 0 0 0 0 0 0 0 0 0 0 0 0 0 0 0 127 0" result="hardAlpha"/>
      <feOffset dx="-0.15" dy="0.05"/>
      <feGaussianBlur stdDeviation="0.15"/>
      <feComposite in2="hardAlpha" operator="out"/>
      <feColorMatrix type="matrix" values="0 0 0 0 0.0705882 0 0 0 0 0.466667 0 0 0 0 0.815686 0 0 0 1 0"/>
      <feBlend mode="normal" in2="BackgroundImageFix" result="effect1_dropShadow_337_3485"/>
      <feBlend mode="normal" in="SourceGraphic" in2="effect1_dropShadow_337_3485" result="shape"/>
    </filter>
    <filter id="filter8_d_337_3485" x="26.5649" y="21.5703" width="2.6" height="3.6" filterUnits="userSpaceOnUse" color-interpolation-filters="sRGB">
      <feFlood flood-opacity="0" result="BackgroundImageFix"/>
      <feColorMatrix in="SourceAlpha" type="matrix" values="0 0 0 0 0 0 0 0 0 0 0 0 0 0 0 0 0 0 127 0" result="hardAlpha"/>
      <feOffset dx="-0.15" dy="0.05"/>
      <feGaussianBlur stdDeviation="0.15"/>
      <feComposite in2="hardAlpha" operator="out"/>
      <feColorMatrix type="matrix" values="0 0 0 0 0.0705882 0 0 0 0 0.466667 0 0 0 0 0.815686 0 0 0 1 0"/>
      <feBlend mode="normal" in2="BackgroundImageFix" result="effect1_dropShadow_337_3485"/>
      <feBlend mode="normal" in="SourceGraphic" in2="effect1_dropShadow_337_3485" result="shape"/>
    </filter>
    <filter id="filter9_d_337_3485" x="2.58491" y="17.5703" width="2.6" height="3.6" filterUnits="userSpaceOnUse" color-interpolation-filters="sRGB">
      <feFlood flood-opacity="0" result="BackgroundImageFix"/>
      <feColorMatrix in="SourceAlpha" type="matrix" values="0 0 0 0 0 0 0 0 0 0 0 0 0 0 0 0 0 0 127 0" result="hardAlpha"/>
      <feOffset dx="-0.15" dy="0.05"/>
      <feGaussianBlur stdDeviation="0.15"/>
      <feComposite in2="hardAlpha" operator="out"/>
      <feColorMatrix type="matrix" values="0 0 0 0 0.0705882 0 0 0 0 0.466667 0 0 0 0 0.815686 0 0 0 1 0"/>
      <feBlend mode="normal" in2="BackgroundImageFix" result="effect1_dropShadow_337_3485"/>
      <feBlend mode="normal" in="SourceGraphic" in2="effect1_dropShadow_337_3485" result="shape"/>
    </filter>
    <filter id="filter10_d_337_3485" x="5.58491" y="17.5703" width="2.6" height="3.6" filterUnits="userSpaceOnUse" color-interpolation-filters="sRGB">
      <feFlood flood-opacity="0" result="BackgroundImageFix"/>
      <feColorMatrix in="SourceAlpha" type="matrix" values="0 0 0 0 0 0 0 0 0 0 0 0 0 0 0 0 0 0 127 0" result="hardAlpha"/>
      <feOffset dx="-0.15" dy="0.05"/>
      <feGaussianBlur stdDeviation="0.15"/>
      <feComposite in2="hardAlpha" operator="out"/>
      <feColorMatrix type="matrix" values="0 0 0 0 0.0705882 0 0 0 0 0.466667 0 0 0 0 0.815686 0 0 0 1 0"/>
      <feBlend mode="normal" in2="BackgroundImageFix" result="effect1_dropShadow_337_3485"/>
      <feBlend mode="normal" in="SourceGraphic" in2="effect1_dropShadow_337_3485" result="shape"/>
    </filter>
    <filter id="filter11_d_337_3485" x="2.58491" y="21.5703" width="2.6" height="3.6" filterUnits="userSpaceOnUse" color-interpolation-filters="sRGB">
      <feFlood flood-opacity="0" result="BackgroundImageFix"/>
      <feColorMatrix in="SourceAlpha" type="matrix" values="0 0 0 0 0 0 0 0 0 0 0 0 0 0 0 0 0 0 127 0" result="hardAlpha"/>
      <feOffset dx="-0.15" dy="0.05"/>
      <feGaussianBlur stdDeviation="0.15"/>
      <feComposite in2="hardAlpha" operator="out"/>
      <feColorMatrix type="matrix" values="0 0 0 0 0.0705882 0 0 0 0 0.466667 0 0 0 0 0.815686 0 0 0 1 0"/>
      <feBlend mode="normal" in2="BackgroundImageFix" result="effect1_dropShadow_337_3485"/>
      <feBlend mode="normal" in="SourceGraphic" in2="effect1_dropShadow_337_3485" result="shape"/>
    </filter>
    <filter id="filter12_d_337_3485" x="5.58491" y="21.5703" width="2.6" height="3.6" filterUnits="userSpaceOnUse" color-interpolation-filters="sRGB">
      <feFlood flood-opacity="0" result="BackgroundImageFix"/>
      <feColorMatrix in="SourceAlpha" type="matrix" values="0 0 0 0 0 0 0 0 0 0 0 0 0 0 0 0 0 0 127 0" result="hardAlpha"/>
      <feOffset dx="-0.15" dy="0.05"/>
      <feGaussianBlur stdDeviation="0.15"/>
      <feComposite in2="hardAlpha" operator="out"/>
      <feColorMatrix type="matrix" values="0 0 0 0 0.0705882 0 0 0 0 0.466667 0 0 0 0 0.815686 0 0 0 1 0"/>
      <feBlend mode="normal" in2="BackgroundImageFix" result="effect1_dropShadow_337_3485"/>
      <feBlend mode="normal" in="SourceGraphic" in2="effect1_dropShadow_337_3485" result="shape"/>
    </filter>
    <filter id="filter13_dd_337_3485" x="11.7149" y="10.5203" width="8.6" height="8.6" filterUnits="userSpaceOnUse" color-interpolation-filters="sRGB">
      <feFlood flood-opacity="0" result="BackgroundImageFix"/>
      <feColorMatrix in="SourceAlpha" type="matrix" values="0 0 0 0 0 0 0 0 0 0 0 0 0 0 0 0 0 0 127 0" result="hardAlpha"/>
      <feOffset dx="0.3" dy="-0.3"/>
      <feGaussianBlur stdDeviation="0.5"/>
      <feComposite in2="hardAlpha" operator="out"/>
      <feColorMatrix type="matrix" values="0 0 0 0 1 0 0 0 0 1 0 0 0 0 1 0 0 0 1 0"/>
      <feBlend mode="normal" in2="BackgroundImageFix" result="effect1_dropShadow_337_3485"/>
      <feColorMatrix in="SourceAlpha" type="matrix" values="0 0 0 0 0 0 0 0 0 0 0 0 0 0 0 0 0 0 127 0" result="hardAlpha"/>
      <feOffset dx="-0.3" dy="0.3"/>
      <feGaussianBlur stdDeviation="0.5"/>
      <feComposite in2="hardAlpha" operator="out"/>
      <feColorMatrix type="matrix" values="0 0 0 0 0.694118 0 0 0 0 0.592157 0 0 0 0 0.733333 0 0 0 1 0"/>
      <feBlend mode="normal" in2="effect1_dropShadow_337_3485" result="effect2_dropShadow_337_3485"/>
      <feBlend mode="normal" in="SourceGraphic" in2="effect2_dropShadow_337_3485" result="shape"/>
    </filter>
    <filter id="filter14_dd_337_3485" x="7.51489" y="5.32793" width="17.2" height="11.3031" filterUnits="userSpaceOnUse" color-interpolation-filters="sRGB">
      <feFlood flood-opacity="0" result="BackgroundImageFix"/>
      <feColorMatrix in="SourceAlpha" type="matrix" values="0 0 0 0 0 0 0 0 0 0 0 0 0 0 0 0 0 0 127 0" result="hardAlpha"/>
      <feOffset dx="0.4" dy="-0.25"/>
      <feGaussianBlur stdDeviation="0.15"/>
      <feComposite in2="hardAlpha" operator="out"/>
      <feColorMatrix type="matrix" values="0 0 0 0 0.384314 0 0 0 0 0.258824 0 0 0 0 0.231373 0 0 0 1 0"/>
      <feBlend mode="normal" in2="BackgroundImageFix" result="effect1_dropShadow_337_3485"/>
      <feColorMatrix in="SourceAlpha" type="matrix" values="0 0 0 0 0 0 0 0 0 0 0 0 0 0 0 0 0 0 127 0" result="hardAlpha"/>
      <feOffset dx="-0.2"/>
      <feGaussianBlur stdDeviation="0.15"/>
      <feComposite in2="hardAlpha" operator="out"/>
      <feColorMatrix type="matrix" values="0 0 0 0 0.670588 0 0 0 0 0.466667 0 0 0 0 0.415686 0 0 0 1 0"/>
      <feBlend mode="normal" in2="effect1_dropShadow_337_3485" result="effect2_dropShadow_337_3485"/>
      <feBlend mode="normal" in="SourceGraphic" in2="effect2_dropShadow_337_3485" result="shape"/>
    </filter>
    <filter id="filter15_d_337_3485" x="12.2249" y="23.5703" width="7.05005" height="7" filterUnits="userSpaceOnUse" color-interpolation-filters="sRGB">
      <feFlood flood-opacity="0" result="BackgroundImageFix"/>
      <feColorMatrix in="SourceAlpha" type="matrix" values="0 0 0 0 0 0 0 0 0 0 0 0 0 0 0 0 0 0 127 0" result="hardAlpha"/>
      <feOffset dx="-0.25" dy="0.25"/>
      <feGaussianBlur stdDeviation="0.25"/>
      <feComposite in2="hardAlpha" operator="out"/>
      <feColorMatrix type="matrix" values="0 0 0 0 0.176471 0 0 0 0 0.12549 0 0 0 0 0.211765 0 0 0 1 0"/>
      <feBlend mode="normal" in2="BackgroundImageFix" result="effect1_dropShadow_337_3485"/>
      <feBlend mode="normal" in="SourceGraphic" in2="effect1_dropShadow_337_3485" result="shape"/>
    </filter>
    <filter id="filter16_f_337_3485" x="15.4248" y="14.2168" width="2.80298" height="2.81445" filterUnits="userSpaceOnUse" color-interpolation-filters="sRGB">
      <feFlood flood-opacity="0" result="BackgroundImageFix"/>
      <feBlend mode="normal" in="SourceGraphic" in2="BackgroundImageFix" result="shape"/>
      <feGaussianBlur stdDeviation="0.25" result="effect1_foregroundBlur_337_3485"/>
    </filter>
    <filter id="filter17_f_337_3485" x="15.706" y="5.73965" width="8.28389" height="8.30391" filterUnits="userSpaceOnUse" color-interpolation-filters="sRGB">
      <feFlood flood-opacity="0" result="BackgroundImageFix"/>
      <feBlend mode="normal" in="SourceGraphic" in2="BackgroundImageFix" result="shape"/>
      <feGaussianBlur stdDeviation="0.2" result="effect1_foregroundBlur_337_3485"/>
    </filter>
    <linearGradient id="paint0_linear_337_3485" x1="16.0149" y1="11.1945" x2="16.0149" y2="15.8295" gradientUnits="userSpaceOnUse">
      <stop stop-color="#A77060"/>
      <stop offset="1" stop-color="#6E504C"/>
    </linearGradient>
    <linearGradient id="paint1_linear_337_3485" x1="2.85889" y1="14.3195" x2="3.43589" y2="14.4905" gradientUnits="userSpaceOnUse">
      <stop stop-color="#554540"/>
      <stop offset="1" stop-color="#735348" stop-opacity="0"/>
    </linearGradient>
    <linearGradient id="paint2_linear_337_3485" x1="17.7959" y1="4.63239" x2="19.9209" y2="4.63239" gradientUnits="userSpaceOnUse">
      <stop stop-color="#67C175"/>
      <stop offset="1" stop-color="#A1E16D"/>
    </linearGradient>
    <linearGradient id="paint3_linear_337_3485" x1="17.7649" y1="4.40639" x2="17.7649" y2="3.78339" gradientUnits="userSpaceOnUse">
      <stop stop-color="#308649"/>
      <stop offset="1" stop-color="#308649" stop-opacity="0"/>
    </linearGradient>
    <radialGradient id="paint4_radial_337_3485" cx="0" cy="0" r="1" gradientUnits="userSpaceOnUse" gradientTransform="translate(16.5249 2.81331) rotate(90) scale(4.3447 1.98139)">
      <stop stop-color="#B27C6D"/>
      <stop offset="0.868" stop-color="#523C35"/>
    </radialGradient>
    <radialGradient id="paint5_radial_337_3485" cx="0" cy="0" r="1" gradientUnits="userSpaceOnUse" gradientTransform="translate(16.7319 1.82031) rotate(180) scale(1.06047 1.04878)">
      <stop stop-color="#D19580"/>
      <stop offset="1" stop-color="#D19580" stop-opacity="0"/>
    </radialGradient>
    <linearGradient id="paint6_linear_337_3485" x1="5.53289" y1="15.8193" x2="5.53289" y2="28.6803" gradientUnits="userSpaceOnUse">
      <stop stop-color="#C9885B"/>
      <stop offset="1" stop-color="#E79F6A"/>
    </linearGradient>
    <linearGradient id="paint7_linear_337_3485" x1="9.62089" y1="23.5993" x2="6.56689" y2="23.5993" gradientUnits="userSpaceOnUse">
      <stop stop-color="#935B42"/>
      <stop offset="1" stop-color="#B67358" stop-opacity="0"/>
    </linearGradient>
    <linearGradient id="paint8_linear_337_3485" x1="2.01489" y1="27.2883" x2="2.76489" y2="27.2883" gradientUnits="userSpaceOnUse">
      <stop stop-color="#A1714D"/>
      <stop offset="1" stop-color="#A1714D" stop-opacity="0"/>
    </linearGradient>
    <linearGradient id="paint9_linear_337_3485" x1="5.53289" y1="14.6573" x2="5.53289" y2="16.5573" gradientUnits="userSpaceOnUse">
      <stop stop-color="#8B5243"/>
      <stop offset="1" stop-color="#8B5243" stop-opacity="0"/>
    </linearGradient>
    <linearGradient id="paint10_linear_337_3485" x1="23.0149" y1="26.8743" x2="30.0149" y2="26.8743" gradientUnits="userSpaceOnUse">
      <stop stop-color="#FFD19E"/>
      <stop offset="1" stop-color="#F2BEA5"/>
    </linearGradient>
    <linearGradient id="paint11_linear_337_3485" x1="30.0149" y1="25.0333" x2="29.3749" y2="25.0333" gradientUnits="userSpaceOnUse">
      <stop stop-color="#EEC9A8"/>
      <stop offset="1" stop-color="#EEC9A8" stop-opacity="0"/>
    </linearGradient>
    <linearGradient id="paint12_linear_337_3485" x1="25.5449" y1="15.6643" x2="25.5449" y2="16.2083" gradientUnits="userSpaceOnUse">
      <stop stop-color="#A97469"/>
      <stop offset="1" stop-color="#A97469" stop-opacity="0"/>
    </linearGradient>
    <radialGradient id="paint13_radial_337_3485" cx="0" cy="0" r="1" gradientUnits="userSpaceOnUse" gradientTransform="translate(22.9059 15.8203) rotate(90) scale(1.17186 0.9375)">
      <stop offset="0.307" stop-color="#A97469"/>
      <stop offset="1" stop-color="#A97469" stop-opacity="0"/>
    </radialGradient>
    <linearGradient id="paint14_linear_337_3485" x1="11.2029" y1="21.5071" x2="22.3279" y2="23.8821" gradientUnits="userSpaceOnUse">
      <stop stop-color="#F2B98E"/>
      <stop offset="1" stop-color="#FFD7AB"/>
    </linearGradient>
    <linearGradient id="paint15_linear_337_3485" x1="8.7029" y1="24.7801" x2="9.7959" y2="24.7801" gradientUnits="userSpaceOnUse">
      <stop offset="0.214" stop-color="#A3785B"/>
      <stop offset="0.657" stop-color="#B27E5B"/>
      <stop offset="0.914" stop-color="#DEA072" stop-opacity="0"/>
    </linearGradient>
    <linearGradient id="paint16_linear_337_3485" x1="23.0249" y1="24.2051" x2="22.4649" y2="24.2051" gradientUnits="userSpaceOnUse">
      <stop offset="0.403" stop-color="#FFE4B3"/>
      <stop offset="1" stop-color="#FFE4B3" stop-opacity="0"/>
    </linearGradient>
    <linearGradient id="paint17_linear_337_3485" x1="20.0529" y1="10.8731" x2="19.2409" y2="11.6861" gradientUnits="userSpaceOnUse">
      <stop offset="0.19" stop-color="#8A594A"/>
      <stop offset="1" stop-color="#986658" stop-opacity="0"/>
    </linearGradient>
    <linearGradient id="paint18_linear_337_3485" x1="12.3429" y1="10.4601" x2="12.8279" y2="10.9441" gradientUnits="userSpaceOnUse">
      <stop stop-color="#794D30"/>
      <stop offset="1" stop-color="#794D30" stop-opacity="0"/>
    </linearGradient>
    <radialGradient id="paint19_radial_337_3485" cx="0" cy="0" r="1" gradientUnits="userSpaceOnUse" gradientTransform="translate(23.0249 14.3661) rotate(90) scale(2.79688 0.76001)">
      <stop offset="0.274" stop-color="#1D0C0B"/>
      <stop offset="1" stop-color="#AC7C6C" stop-opacity="0"/>
    </radialGradient>
    <radialGradient id="paint20_radial_337_3485" cx="0" cy="0" r="1" gradientUnits="userSpaceOnUse" gradientTransform="translate(8.8429 14.3031) rotate(90) scale(2.4375 0.82813)">
      <stop offset="0.244" stop-color="#1D0C0B"/>
      <stop offset="1" stop-color="#1D0C0B" stop-opacity="0"/>
    </radialGradient>
    <linearGradient id="paint21_linear_337_3485" x1="24.4159" y1="19.6923" x2="26.0139" y2="19.7313" gradientUnits="userSpaceOnUse">
      <stop stop-color="#53C7FF"/>
      <stop offset="0.842" stop-color="#44ACFA"/>
      <stop offset="1" stop-color="#3EA2ED"/>
    </linearGradient>
    <linearGradient id="paint22_linear_337_3485" x1="24.0149" y1="19.3193" x2="24.2879" y2="19.3193" gradientUnits="userSpaceOnUse">
      <stop stop-color="#5ADFFF"/>
      <stop offset="0.909" stop-color="#5ADFFF" stop-opacity="0"/>
    </linearGradient>
    <linearGradient id="paint23_linear_337_3485" x1="27.4159" y1="19.6923" x2="29.0139" y2="19.7313" gradientUnits="userSpaceOnUse">
      <stop stop-color="#53C7FF"/>
      <stop offset="0.842" stop-color="#44ACFA"/>
      <stop offset="1" stop-color="#3EA2ED"/>
    </linearGradient>
    <linearGradient id="paint24_linear_337_3485" x1="27.0149" y1="19.3193" x2="27.2879" y2="19.3193" gradientUnits="userSpaceOnUse">
      <stop stop-color="#5ADFFF"/>
      <stop offset="0.909" stop-color="#5ADFFF" stop-opacity="0"/>
    </linearGradient>
    <linearGradient id="paint25_linear_337_3485" x1="24.4159" y1="23.6923" x2="26.0139" y2="23.7313" gradientUnits="userSpaceOnUse">
      <stop stop-color="#53C7FF"/>
      <stop offset="0.842" stop-color="#44ACFA"/>
      <stop offset="1" stop-color="#3EA2ED"/>
    </linearGradient>
    <linearGradient id="paint26_linear_337_3485" x1="24.0149" y1="23.3193" x2="24.2879" y2="23.3193" gradientUnits="userSpaceOnUse">
      <stop stop-color="#5ADFFF"/>
      <stop offset="0.909" stop-color="#5ADFFF" stop-opacity="0"/>
    </linearGradient>
    <linearGradient id="paint27_linear_337_3485" x1="27.4159" y1="23.6923" x2="29.0139" y2="23.7313" gradientUnits="userSpaceOnUse">
      <stop stop-color="#53C7FF"/>
      <stop offset="0.842" stop-color="#44ACFA"/>
      <stop offset="1" stop-color="#3EA2ED"/>
    </linearGradient>
    <linearGradient id="paint28_linear_337_3485" x1="27.0149" y1="23.3193" x2="27.2879" y2="23.3193" gradientUnits="userSpaceOnUse">
      <stop stop-color="#5ADFFF"/>
      <stop offset="0.909" stop-color="#5ADFFF" stop-opacity="0"/>
    </linearGradient>
    <linearGradient id="paint29_linear_337_3485" x1="3.47991" y1="20.2923" x2="5.37791" y2="17.6843" gradientUnits="userSpaceOnUse">
      <stop stop-color="#54D3FF"/>
      <stop offset="1" stop-color="#44ACFA"/>
    </linearGradient>
    <linearGradient id="paint30_linear_337_3485" x1="3.03491" y1="19.3193" x2="3.30791" y2="19.3193" gradientUnits="userSpaceOnUse">
      <stop stop-color="#5ADFFF"/>
      <stop offset="0.909" stop-color="#5ADFFF" stop-opacity="0"/>
    </linearGradient>
    <linearGradient id="paint31_linear_337_3485" x1="6.47991" y1="20.2923" x2="8.37791" y2="17.6843" gradientUnits="userSpaceOnUse">
      <stop stop-color="#54D3FF"/>
      <stop offset="1" stop-color="#44ACFA"/>
    </linearGradient>
    <linearGradient id="paint32_linear_337_3485" x1="6.03491" y1="19.3193" x2="6.30791" y2="19.3193" gradientUnits="userSpaceOnUse">
      <stop stop-color="#5ADFFF"/>
      <stop offset="0.909" stop-color="#5ADFFF" stop-opacity="0"/>
    </linearGradient>
    <linearGradient id="paint33_linear_337_3485" x1="3.47991" y1="24.2923" x2="5.37791" y2="21.6843" gradientUnits="userSpaceOnUse">
      <stop stop-color="#54D3FF"/>
      <stop offset="1" stop-color="#44ACFA"/>
    </linearGradient>
    <linearGradient id="paint34_linear_337_3485" x1="3.03491" y1="23.3193" x2="3.30791" y2="23.3193" gradientUnits="userSpaceOnUse">
      <stop stop-color="#5ADFFF"/>
      <stop offset="0.909" stop-color="#5ADFFF" stop-opacity="0"/>
    </linearGradient>
    <linearGradient id="paint35_linear_337_3485" x1="6.47991" y1="24.2923" x2="8.37791" y2="21.6843" gradientUnits="userSpaceOnUse">
      <stop stop-color="#54D3FF"/>
      <stop offset="1" stop-color="#44ACFA"/>
    </linearGradient>
    <linearGradient id="paint36_linear_337_3485" x1="6.03491" y1="23.3193" x2="6.30791" y2="23.3193" gradientUnits="userSpaceOnUse">
      <stop stop-color="#5ADFFF"/>
      <stop offset="0.909" stop-color="#5ADFFF" stop-opacity="0"/>
    </linearGradient>
    <radialGradient id="paint37_radial_337_3485" cx="0" cy="0" r="1" gradientUnits="userSpaceOnUse" gradientTransform="translate(16.2219 13.3703) rotate(90) scale(1.85923 0.852759)">
      <stop stop-color="#B1786C"/>
      <stop offset="1" stop-color="#735351"/>
    </radialGradient>
    <radialGradient id="paint38_radial_337_3485" cx="0" cy="0" r="1" gradientUnits="userSpaceOnUse" gradientTransform="translate(16.2349 13.1703) scale(0.47677 0.25583)">
      <stop stop-color="#BE8370"/>
      <stop offset="1" stop-color="#BE8370" stop-opacity="0"/>
    </radialGradient>
    <linearGradient id="paint39_linear_337_3485" x1="15.5149" y1="14.3291" x2="17.8369" y2="16.6511" gradientUnits="userSpaceOnUse">
      <stop stop-color="#6C4B40"/>
      <stop offset="1" stop-color="#B16F60"/>
    </linearGradient>
    <linearGradient id="paint40_linear_337_3485" x1="16.0149" y1="5.87761" x2="16.0149" y2="16.3296" gradientUnits="userSpaceOnUse">
      <stop stop-color="#B67A6C"/>
      <stop offset="1" stop-color="#825E59"/>
    </linearGradient>
    <linearGradient id="paint41_linear_337_3485" x1="20.1059" y1="9.50461" x2="19.8249" y2="9.78561" gradientUnits="userSpaceOnUse">
      <stop stop-color="#BF8B78"/>
      <stop offset="1" stop-color="#BF8B78" stop-opacity="0"/>
    </linearGradient>
    <linearGradient id="paint42_linear_337_3485" x1="16.0149" y1="16.8196" x2="16.0149" y2="15.6586" gradientUnits="userSpaceOnUse">
      <stop stop-color="#543C46"/>
      <stop offset="1" stop-color="#543C46" stop-opacity="0"/>
    </linearGradient>
    <radialGradient id="paint43_radial_337_3485" cx="0" cy="0" r="1" gradientUnits="userSpaceOnUse" gradientTransform="translate(16.0149 8.83761) rotate(-90) scale(1.96417 1.31017)">
      <stop offset="0.527" stop-color="#7E4541"/>
      <stop offset="1" stop-color="#7E4541" stop-opacity="0"/>
    </radialGradient>
    <linearGradient id="paint44_linear_337_3485" x1="12.9749" y1="27.3043" x2="19.0249" y2="27.3043" gradientUnits="userSpaceOnUse">
      <stop stop-color="#534264"/>
      <stop offset="1" stop-color="#423B49"/>
    </linearGradient>
    <linearGradient id="paint45_linear_337_3485" x1="12.9749" y1="27.3283" x2="13.6159" y2="27.3283" gradientUnits="userSpaceOnUse">
      <stop offset="0.347" stop-color="#695282"/>
      <stop offset="1" stop-color="#695282" stop-opacity="0"/>
    </linearGradient>
    <linearGradient id="paint46_linear_337_3485" x1="17.7188" y1="16.3598" x2="15.9078" y2="14.6528" gradientUnits="userSpaceOnUse">
      <stop stop-color="#C38878"/>
      <stop offset="1" stop-color="#A57A6D"/>
    </linearGradient>
    <linearGradient id="paint47_linear_337_3485" x1="23.7179" y1="14.0418" x2="16.3039" y2="6.16984" gradientUnits="userSpaceOnUse">
      <stop stop-color="#D4967E" stop-opacity="0"/>
      <stop offset="1" stop-color="#D4967E"/>
    </linearGradient>
  </defs>
</svg>