<svg xmlns="http://www.w3.org/2000/svg" width="56" height="56" viewBox="0 0 56 56" fill="none">
<path d="M11.6667 49C10.3833 49 9.28434 48.5427 8.36967 47.628C7.455 46.7133 6.99845 45.6151 7 44.3333V11.6667C7 10.3833 7.45734 9.28434 8.372 8.36967C9.28667 7.455 10.3849 6.99845 11.6667 7H44.3333C45.6167 7 46.7157 7.45734 47.6303 8.372C48.545 9.28667 49.0016 10.3849 49 11.6667V44.3333C49 45.6167 48.5427 46.7157 47.628 47.6303C46.7133 48.545 45.6151 49.0016 44.3333 49H11.6667ZM24.7333 36.8083C25.0444 36.8083 25.3361 36.7593 25.6083 36.6613C25.8806 36.5633 26.1333 36.3984 26.3667 36.1667L39.6083 22.925C40.0361 22.4972 40.25 21.9722 40.25 21.35C40.25 20.7278 40.0167 20.1833 39.55 19.7167C39.1222 19.2889 38.5778 19.075 37.9167 19.075C37.2556 19.075 36.7111 19.2889 36.2833 19.7167L24.7333 31.2667L19.6583 26.1917C19.2306 25.7639 18.7056 25.55 18.0833 25.55C17.4611 25.55 16.9167 25.7833 16.45 26.25C16.0222 26.6778 15.8083 27.2222 15.8083 27.8833C15.8083 28.5444 16.0222 29.0889 16.45 29.5167L23.1 36.1667C23.3333 36.4 23.5861 36.5649 23.8583 36.6613C24.1306 36.7578 24.4222 36.8068 24.7333 36.8083Z" fill="#00C537"/>
</svg>