<svg width="343" height="185" viewBox="0 0 343 185" fill="none" xmlns="http://www.w3.org/2000/svg">
<path d="M185.6 184.8C272.198 184.8 342.4 182.292 342.4 179.2C342.4 176.107 272.198 173.6 185.6 173.6C99.0017 173.6 28.8 176.107 28.8 179.2C28.8 182.292 99.0017 184.8 185.6 184.8Z" fill="url(#paint0_linear_0_1)"/>
<path d="M45.2294 141.829C45.2294 141.829 53.8936 125.812 76.581 110.187C92.598 99.1544 100.374 70.6826 100.374 70.6826C100.374 70.6826 68.4335 74.3642 55.8876 94.8592C43.3418 115.354 45.2294 141.829 45.2294 141.829Z" fill="#8BD300"/>
<path d="M45.1506 142.246C45.3671 142.23 45.5496 142.072 45.5832 141.863C48.8877 124.534 57.8612 111.497 64.8164 103.604C72.3549 95.0643 79.1776 90.5703 79.2471 90.5292C79.4665 90.3803 79.5304 90.0854 79.3815 89.8661C79.3469 89.8135 79.3022 89.7683 79.2501 89.7331C79.1979 89.6979 79.1393 89.6734 79.0777 89.6609C79.016 89.6484 78.9525 89.6482 78.8907 89.6603C78.829 89.6725 78.7703 89.6967 78.7179 89.7317C78.6484 89.7727 71.71 94.3353 64.0935 102.978C57.059 110.949 47.9753 124.139 44.6377 141.677C44.6251 141.738 44.625 141.801 44.6373 141.863C44.6497 141.924 44.6742 141.982 44.7095 142.034C44.7448 142.086 44.7902 142.13 44.8429 142.164C44.8955 142.197 44.9545 142.22 45.0162 142.231C45.0773 142.239 45.1142 142.248 45.1506 142.246Z" fill="#3D4F1A"/>
<path d="M49.4084 141.18C49.4084 141.18 51.7931 135.404 64.4319 135.907C77.0697 136.399 84.5293 142.877 105.931 128.748C105.931 128.748 88.2183 116.004 70.3137 120.089C52.396 124.163 51.4954 131.224 49.4084 141.18Z" fill="#8BD300"/>
<path d="M49.3818 141.653C49.5382 141.642 49.6889 141.547 49.7748 141.395C49.8289 141.307 54.8012 132.091 63.7066 129.809C79.269 125.818 90.3486 130.089 90.4611 130.141C90.5801 130.186 90.7118 130.182 90.8281 130.131C90.9444 130.08 91.036 129.985 91.0832 129.867C91.1275 129.749 91.125 129.619 91.0762 129.503C91.0274 129.387 90.936 129.294 90.8209 129.244C90.7089 129.203 79.3423 124.808 63.471 128.882C54.1493 131.265 49.1462 140.556 48.932 140.947C48.8036 141.186 48.8965 141.47 49.1354 141.598C49.1994 141.642 49.2974 141.66 49.3818 141.653Z" fill="#3D4F1A"/>
<path d="M43.8318 140.222C43.8318 140.222 44.4908 134.012 33.1475 128.417C21.8042 122.821 12.162 124.95 0.100952 102.323C0.100952 102.323 21.7454 99.5814 35.5406 111.721C49.3343 123.837 46.7443 130.474 43.8318 140.222Z" fill="#8BD300"/>
<path d="M43.9279 140.723C44.1687 140.706 44.3722 140.498 44.3671 140.256C44.3713 139.808 44.3941 129.262 37.3535 122.718C25.3481 111.564 13.2633 110.005 13.1531 109.988C13.0286 109.974 12.9036 110.01 12.805 110.087C12.7064 110.164 12.642 110.277 12.6258 110.401C12.6118 110.526 12.6472 110.651 12.7245 110.749C12.8017 110.848 12.9146 110.912 13.0388 110.929C13.1611 110.944 24.9407 112.477 36.7133 123.417C43.4552 129.68 43.4263 140.142 43.4221 140.251C43.4206 140.314 43.4317 140.377 43.4547 140.436C43.4776 140.494 43.512 140.548 43.5558 140.593C43.5996 140.638 43.652 140.675 43.7098 140.7C43.7677 140.724 43.8299 140.738 43.8929 140.738C43.892 140.726 43.9041 140.725 43.9279 140.723Z" fill="#3D4F1A"/>
<path d="M49.2382 182.952C65.7096 182.952 76.1919 180.331 74.511 168.726C73.4437 161.359 67.7009 154.15 63.647 149.857C63.1254 149.306 62.5943 148.764 62.0538 148.232C60.5483 146.75 59.537 145.89 59.537 145.89L59.489 145.62L59.2024 143.995L58.8678 142.123L58.1114 137.838L57.8482 136.341L49.2382 135.966L40.2534 136.341L40.0467 137.838L39.728 140.195L39.202 144.003L38.9794 145.628L38.9472 145.898C38.9472 145.898 37.936 146.75 36.4305 148.24C35.8919 148.774 35.3608 149.316 34.8373 149.865C30.7834 154.15 25.0406 161.366 23.9733 168.734C22.2844 180.331 32.7667 182.952 49.2382 182.952Z" fill="#3D4F1A"/>
<path d="M36.9056 139.057H61.8111C63.1449 139.057 64.2369 137.965 64.2369 136.631V135.114C64.2369 133.78 63.1449 132.688 61.8111 132.688H36.9056C35.5719 132.688 34.4799 133.78 34.4799 135.114V136.631C34.4799 137.965 35.5719 139.057 36.9056 139.057Z" fill="#3D4F1A"/>
<path d="M33 79.4108C33 81.9896 30.8052 84.0775 28.0944 84.0775C25.3835 84.0775 23.2 81.9793 23.2 79.4108C23.2 76.8315 25.3947 74.7441 28.1055 74.7441C30.8164 74.7441 33 76.8315 33 79.4108Z" stroke="#DCDCDC" stroke-width="5.225" stroke-miterlimit="10"/>
<path d="M90.0163 13.6584C89.6525 15.0159 90.4581 16.4113 91.8157 16.775C93.1732 17.1388 94.5686 16.3331 94.9323 14.9756C95.2961 13.6181 94.4904 12.2227 93.1329 11.859C91.7754 11.4952 90.38 12.3008 90.0163 13.6584Z" fill="#DCDCDC"/>
<path d="M99.2591 45.8673C98.8953 47.2249 99.7009 48.6202 101.058 48.984C102.416 49.3477 103.811 48.5421 104.175 47.1846C104.539 45.8271 103.733 44.4317 102.376 44.0679C101.018 43.7042 99.6228 44.5098 99.2591 45.8673Z" fill="#DCDCDC"/>
<path d="M149.846 22.0334C149.482 23.3909 150.288 24.7863 151.646 25.15C153.003 25.5138 154.399 24.7081 154.762 23.3506C155.126 21.9931 154.32 20.5977 152.963 20.234C151.605 19.8702 150.21 20.6758 149.846 22.0334Z" fill="#DCDCDC"/>
<path d="M241.553 78.1011C241.314 78.9931 241.843 79.91 242.735 80.149C243.627 80.388 244.544 79.8586 244.783 78.9667C245.022 78.0747 244.493 77.1578 243.601 76.9188C242.709 76.6798 241.792 77.2091 241.553 78.1011Z" fill="#DCDCDC"/>
<path d="M242.259 118.658C241.895 120.016 242.701 121.411 244.058 121.775C245.416 122.139 246.811 121.333 247.175 119.976C247.539 118.618 246.733 117.223 245.375 116.859C244.018 116.495 242.623 117.301 242.259 118.658Z" fill="#DCDCDC"/>
<path d="M262.325 103.725C261.962 105.082 262.767 106.478 264.125 106.841C265.482 107.205 266.878 106.4 267.242 105.042C267.605 103.684 266.8 102.289 265.442 101.925C264.085 101.562 262.689 102.367 262.325 103.725Z" fill="#DCDCDC"/>
<path d="M226.667 49.7616V58.8331L218.478 68.593H252.876C263.274 68.593 271.708 60.1594 271.708 49.7616C271.708 39.3643 263.274 30.9307 252.876 30.9307H245.498C235.095 30.9307 226.667 39.3643 226.667 49.7616Z" fill="#DCDCDC"/>
<path d="M241.179 49.7302C241.178 50.618 240.825 51.4693 240.198 52.0971C239.57 52.7248 238.719 53.0777 237.831 53.078C236.943 53.0775 236.092 52.7247 235.464 52.0969C234.836 51.4692 234.483 50.6179 234.483 49.7302C234.483 48.8424 234.836 47.9912 235.464 47.3634C236.092 46.7357 236.943 46.3828 237.831 46.3823C238.719 46.3827 239.57 46.7355 240.198 47.3633C240.825 47.991 241.178 48.8424 241.179 49.7302ZM252.555 49.7297C252.554 50.6175 252.202 51.4688 251.574 52.0966C250.946 52.7243 250.095 53.0772 249.207 53.0776C248.319 53.0772 247.468 52.7244 246.84 52.0966C246.212 51.4688 245.86 50.6175 245.859 49.7297C245.86 48.8419 246.212 47.9906 246.84 47.3628C247.468 46.735 248.319 46.3822 249.207 46.3818C250.095 46.3823 250.946 46.7352 251.574 47.363C252.201 47.9907 252.554 48.842 252.555 49.7297ZM263.931 49.7297C263.931 50.6175 263.578 51.4688 262.95 52.0966C262.322 52.7244 261.471 53.0772 260.583 53.0776C259.695 53.0772 258.844 52.7244 258.216 52.0966C257.588 51.4688 257.236 50.6175 257.235 49.7297C257.236 48.8419 257.589 47.9907 258.216 47.3629C258.844 46.7352 259.695 46.3823 260.583 46.3818C261.471 46.3822 262.322 46.735 262.95 47.3628C263.578 47.9906 263.931 48.8419 263.931 49.7297Z" fill="#6F6F6F"/>
<path d="M254.975 149.738L248.408 152.305L248.824 145.267L255.389 142.702L254.975 149.738Z" stroke="#DCDCDC" stroke-width="4.267" stroke-linecap="round" stroke-linejoin="round"/>
<path fill-rule="evenodd" clip-rule="evenodd" d="M110.467 21.6894V3.81746C110.467 1.96619 111.963 0.466797 113.81 0.466797H133.874C135.721 0.466797 137.218 1.96619 137.218 3.81746V21.6894C137.218 22.2866 137.059 22.8731 136.756 23.388C136.454 23.9029 136.019 24.3277 135.497 24.6182L125.466 30.2023C124.969 30.4791 124.41 30.6244 123.842 30.6244C123.273 30.6244 122.714 30.4791 122.217 30.2023L112.185 24.6182C111.664 24.327 111.23 23.9021 110.928 23.3873C110.626 22.8724 110.467 22.2863 110.467 21.6894Z" fill="#DCDCDC"/>
<path d="M118.282 15.2455H129.403M118.282 10.0352H129.403M118.282 20.3051H129.403" stroke="#6F6F6F" stroke-width="3.682" stroke-linecap="round" stroke-linejoin="round"/>
<path d="M270.65 74.6145L262.153 83.1116C261.843 83.421 261.843 83.9227 262.153 84.2322C262.462 84.5416 262.964 84.5416 263.273 84.2322L271.771 75.7351C272.08 75.4257 272.08 74.9239 271.771 74.6145C271.461 74.305 270.959 74.305 270.65 74.6145Z" fill="#DCDCDC"/>
<path d="M269.818 80.6972L267.368 83.1477C267.058 83.4571 267.058 83.9589 267.368 84.2683C267.677 84.5778 268.179 84.5778 268.488 84.2683L270.939 81.8179C271.248 81.5084 271.248 81.0067 270.939 80.6972C270.629 80.3878 270.128 80.3878 269.818 80.6972Z" fill="#DCDCDC"/>
<path d="M311.064 49.0351C311.064 49.0351 303.896 47.1114 301.425 63.5437C298.954 79.9755 298.937 88.9761 298.937 88.9761C298.937 88.9761 298.029 92.5494 295.365 91.2983C292.7 90.0471 288.114 85.5172 285.003 87.6438C281.779 89.8511 281.934 94.2182 284.562 99.8378C287.19 105.457 292.493 117.97 292.969 119.107C293.439 120.217 293.342 122.123 291.39 121.559C289.438 120.996 276.92 113.876 273.899 120.015C270.872 126.157 280.766 140.604 281.816 142.202C282.866 143.801 282.777 144.668 282.089 145.381C281.401 146.093 277.416 143.303 273.775 141.42C270.134 139.538 265.578 138 264.13 141.69C262.682 145.379 265.904 157.62 283.797 173.276L292.562 179.987L302.872 175.903C324.4 165.819 330.89 154.948 330.519 151.003C330.148 147.058 325.347 147.273 321.324 148.072C317.301 148.871 312.7 150.447 312.237 149.571C311.773 148.695 311.922 147.84 313.375 146.594C314.827 145.347 328.335 134.211 327.128 127.467C325.923 120.73 311.922 124.104 309.891 124.097C307.862 124.098 308.301 122.244 309.057 121.305C309.829 120.348 318.398 109.792 322.476 105.12C326.557 100.454 327.915 96.2958 325.428 93.282C323.033 90.3724 317.367 93.4627 314.461 93.927C311.556 94.3909 311.675 90.7009 311.675 90.7009C311.675 90.7009 314.157 82.0471 316.332 65.5733C318.505 49.0995 310.904 48.9996 310.904 48.9996" fill="#DCDCDC"/>
<path d="M292.379 177.679C294.019 165.586 296.429 148.898 299.16 130.475C301.885 112.059 304.334 95.3835 306.047 83.2987C306.896 77.2689 307.581 72.3839 308.058 68.9908C308.295 67.3126 308.48 66.0055 308.609 65.0992C308.672 64.6675 308.725 64.332 308.759 64.087C308.799 63.8621 308.824 63.7412 308.824 63.7412C308.824 63.7412 308.819 63.8565 308.796 64.0912C308.768 64.3348 308.73 64.6736 308.682 65.1081C308.569 66.0172 308.405 67.3257 308.199 69.0104C307.777 72.396 307.131 77.2918 306.307 83.3366C304.667 95.4298 302.256 112.11 299.532 130.532C296.808 148.954 294.353 165.632 292.646 177.715" fill="#6F6F6F"/>
<path d="M291.167 94.2457C291.191 94.2322 291.364 94.4501 291.676 94.8669C291.986 95.2766 292.413 95.8842 292.93 96.6388C293.965 98.155 295.341 100.28 296.816 102.664C298.252 105.009 299.557 107.132 300.561 108.771C301.011 109.493 301.39 110.106 301.705 110.615C301.978 111.049 302.116 111.298 302.092 111.311C302.066 111.325 301.887 111.109 301.577 110.699C301.274 110.287 300.847 109.68 300.335 108.917C299.312 107.39 297.964 105.243 296.498 102.864L292.713 96.7895C292.262 96.0676 291.877 95.4563 291.562 94.9476C291.286 94.5066 291.148 94.2578 291.167 94.2457ZM303.112 111.174C303.053 111.089 307.314 108.054 312.631 104.407C317.948 100.753 322.31 97.8619 322.369 97.9464C322.427 98.0309 318.165 101.059 312.849 104.713C307.526 108.368 303.17 111.258 303.112 111.174ZM297.652 139.275C297.644 139.248 297.917 139.147 298.407 138.972C298.978 138.784 299.68 138.552 300.506 138.274C302.277 137.685 304.728 136.857 307.395 135.85C310.063 134.849 312.449 133.859 314.176 133.132C314.98 132.796 315.66 132.506 316.218 132.271C316.7 132.07 316.975 131.975 316.987 131.993C317.001 132.018 316.745 132.158 316.282 132.404C315.623 132.741 314.957 133.065 314.284 133.375C312.069 134.401 309.817 135.343 307.531 136.199C305.245 137.057 302.929 137.833 300.587 138.524C299.686 138.787 298.953 138.983 298.451 139.111C297.943 139.24 297.659 139.301 297.652 139.275ZM283.481 126.337C283.497 126.318 283.711 126.476 284.093 126.78C284.468 127.087 285.003 127.537 285.66 128.097C287.369 129.563 289.064 131.046 290.746 132.543C292.431 134.038 294.103 135.548 295.761 137.073C296.265 137.535 296.763 138.005 297.253 138.481C297.6 138.817 297.783 139.018 297.766 139.036C297.75 139.055 297.537 138.898 297.154 138.593C296.779 138.286 296.244 137.837 295.587 137.277C293.878 135.81 292.183 134.328 290.502 132.83C288.532 131.079 286.758 129.474 285.493 128.299C284.989 127.837 284.492 127.367 284.001 126.891C283.647 126.557 283.458 126.358 283.481 126.337ZM275.508 150.531C275.525 150.512 275.802 150.717 276.285 151.109C276.818 151.552 277.497 152.113 278.301 152.791C279.992 154.224 282.313 156.218 284.86 158.443C287.407 160.669 289.701 162.698 291.349 164.179C292.124 164.886 292.777 165.482 293.288 165.953C293.737 166.376 293.983 166.624 293.967 166.643C293.95 166.662 293.673 166.457 293.19 166.065C292.657 165.622 291.978 165.061 291.174 164.383C288.974 162.515 286.788 160.631 284.615 158.731C282.44 156.833 280.277 154.921 278.126 152.995C277.351 152.288 276.698 151.691 276.187 151.221C275.731 150.8 275.492 150.55 275.508 150.531ZM293.63 166.132C293.623 166.106 293.964 165.964 294.579 165.728C295.268 165.472 296.151 165.143 297.211 164.752C299.433 163.92 302.504 162.769 305.853 161.4C308.715 160.233 311.558 159.018 314.38 157.758C315.237 157.381 316.093 157.002 316.947 156.619C317.556 156.356 317.896 156.215 317.91 156.24C317.924 156.265 317.6 156.444 317.011 156.752C316.422 157.06 315.559 157.492 314.488 158C311.694 159.332 308.862 160.582 305.995 161.748C303.129 162.916 300.229 164 297.299 164.999C296.412 165.302 295.52 165.591 294.623 165.866C293.995 166.056 293.642 166.151 293.63 166.132Z" fill="#6F6F6F"/>
<path d="M289.169 63.4668H289.23C289.591 68.3747 293.4 68.4503 293.4 68.4503C293.4 68.4503 289.2 68.5292 289.2 74.2001C289.2 68.5292 285 68.4503 285 68.4503C285 68.4503 288.807 68.3747 289.169 63.4668Z" fill="#DCDCDC"/>
<path d="M170.059 63.2273L163 89.033L165.519 86.1346C164.587 86.6306 163.507 87.011 162.311 87.2807C161.116 87.5509 159.815 87.7049 158.454 87.7768C157.093 87.8482 155.677 87.8374 154.222 87.7768C152.773 87.7161 151.291 87.606 149.786 87.479H149.78C148.715 87.3886 147.656 87.7249 146.838 88.414C146.02 89.1031 145.508 90.0887 145.416 91.1545C145.235 93.2708 146.739 95.1445 148.8 95.4805C150.354 95.7283 151.93 95.9598 153.55 96.1474C155.17 96.3345 156.829 96.4722 158.548 96.5109C160.267 96.5496 162.047 96.4834 163.888 96.2188C165.723 95.9542 167.629 95.4749 169.492 94.6704C170.059 94.4264 170.567 94.0657 170.985 93.6119C171.403 93.158 171.72 92.6213 171.916 92.0365L172.005 91.7663L180.474 66.3848C181.427 63.5306 179.885 60.4502 177.03 59.4968C174.176 58.5434 171.095 60.0866 170.142 62.9408C170.115 63.0346 170.081 63.1391 170.059 63.2273Z" fill="#F8AE9D"/>
<path d="M206.657 94.6453C206.657 94.6453 206.93 98.4673 204.193 99.4771L175.716 100.574C175.716 100.574 173.803 98.7169 174.18 94.2654C174.18 94.2547 186.281 81.9085 206.657 94.6453Z" fill="#8BD300"/>
<path d="M185.748 98.6767C185.842 99.4038 186.161 99.9605 186.464 99.9162C186.762 99.8779 186.933 99.2549 186.839 98.5334C186.745 97.8059 186.426 97.2492 186.123 97.2935C185.819 97.3318 185.654 97.9548 185.748 98.6767Z" fill="#B55E63"/>
<path d="M173.641 89.61V89.6487C173.652 89.7551 173.658 89.8671 173.664 89.9847C173.692 90.4327 173.714 90.9703 173.731 91.5807C173.748 92.0735 173.753 92.6111 173.759 93.1879C173.759 93.6191 173.764 94.0671 173.764 94.5319C181.862 91.0319 198.421 93.5183 205.087 94.7335C205.02 94.3975 204.958 94.0671 204.897 93.7423C204.852 93.5015 204.813 93.2663 204.768 93.0311C204.326 90.4719 204.091 88.1708 204.013 86.1156L203.996 85.5668C203.929 82.5148 204.259 78.1753 204.93 73.7065C204.975 73.3985 205.025 73.0905 205.07 72.7881L205.171 72.1833C205.414 70.6992 205.7 69.2222 206.026 67.7541C206.138 67.2613 206.233 66.7629 206.312 66.2701C206.401 65.7213 206.468 65.1725 206.518 64.6293C206.641 63.2517 206.63 61.9077 206.451 60.6589C206.132 58.4357 205.266 56.521 203.661 55.289C202.755 54.5946 201.608 54.113 200.188 53.9226C199.724 53.861 199.265 53.7994 198.823 53.749C197.431 53.581 196.15 53.4634 195.11 53.3794C194.769 53.3514 194.45 53.329 194.165 53.3066C193.438 53.2562 192.901 53.2226 192.638 53.2114C192.575 53.2087 192.512 53.205 192.448 53.2002L180.016 56.6442L178.831 56.969C178.327 57.1258 177.852 57.277 177.41 57.4226C176.314 57.7866 175.38 58.1338 174.575 58.4749C173.58 58.9005 172.786 59.3149 172.159 59.7517C169.419 61.6501 169.81 63.8397 169.821 68.1517V68.4485C169.821 68.7733 169.816 69.0977 169.805 69.4225C169.794 69.8313 169.772 70.2345 169.738 70.6377C169.682 71.4497 170.164 72.2421 170.063 73.0373C171.367 78.6335 171.693 80.5002 172.159 84.0002C172.564 87.0335 172.484 88.7588 173.334 89.386C173.524 89.5316 173.641 89.61 173.641 89.61Z" fill="#8BD300"/>
<path d="M192.179 53.8102C192.179 53.8102 191.082 57.9593 186.938 59.1111C181.67 60.5713 180.876 58.8026 180.876 58.8026C181.007 58.0515 181.055 57.2883 181.02 56.5267C181.007 56.2229 180.983 55.9197 180.948 55.6176C180.854 54.7687 180.678 53.8433 180.43 52.7849C180.375 52.5371 180.309 52.2781 180.243 52.0135L180.238 51.9804C183.841 50.6252 186.668 48.5915 188.399 45.5829L188.911 45.1806L189.258 44.9053L189.357 45.1143L189.374 45.8143C189.445 49.1039 190.002 51.0494 192.179 53.8102Z" fill="#F8AE9D"/>
<path d="M167.343 156.79C167.448 156.79 167.552 156.774 167.657 156.735L204.633 143.405C204.859 143.316 205.042 143.142 205.142 142.921C205.242 142.699 205.252 142.447 205.169 142.218C205.087 141.99 204.919 141.802 204.7 141.695C204.481 141.589 204.23 141.571 203.999 141.647L167.023 154.977C166.816 155.052 166.642 155.197 166.532 155.388C166.422 155.578 166.382 155.801 166.42 156.018C166.458 156.235 166.572 156.431 166.741 156.572C166.909 156.713 167.123 156.791 167.343 156.79Z" fill="#8BD300"/>
<path d="M205.85 156.791C206.07 156.79 206.282 156.712 206.45 156.571C206.618 156.429 206.73 156.233 206.768 156.017C206.805 155.8 206.766 155.577 206.655 155.388C206.545 155.198 206.371 155.053 206.165 154.978L168.748 141.428C168.517 141.351 168.265 141.367 168.046 141.473C167.827 141.579 167.657 141.767 167.574 141.996C167.491 142.225 167.5 142.477 167.6 142.699C167.7 142.921 167.882 143.096 168.109 143.185L205.525 156.736C205.641 156.774 205.746 156.791 205.85 156.791Z" fill="#8BD300"/>
<path d="M164.053 180.612C164.439 180.611 164.812 180.47 165.103 180.216C165.393 179.962 165.582 179.611 165.635 179.228L172.313 129.364H200.257L206.831 179.228C206.858 179.436 206.926 179.637 207.031 179.819C207.135 180 207.275 180.159 207.441 180.287C207.608 180.414 207.798 180.508 208 180.562C208.203 180.616 208.414 180.629 208.622 180.601C208.83 180.574 209.03 180.506 209.212 180.401C209.393 180.296 209.553 180.157 209.68 179.99C209.807 179.824 209.901 179.634 209.955 179.431C210.009 179.229 210.022 179.018 209.994 178.81L203.238 127.557C203.188 127.173 202.999 126.821 202.708 126.565C202.418 126.31 202.044 126.169 201.657 126.168H170.914C170.527 126.167 170.153 126.307 169.862 126.562C169.571 126.816 169.383 127.168 169.332 127.551L162.466 178.804C162.41 179.224 162.523 179.649 162.781 179.986C163.038 180.323 163.418 180.544 163.838 180.601C163.91 180.612 163.981 180.612 164.053 180.612Z" fill="#8BD300"/>
<path d="M179.818 127.766H199.783C206.109 127.766 212.882 124.306 213.852 118.051C215.076 110.153 215.497 102.152 215.108 94.1688C214.7 85.7655 210.688 77.9517 204.081 72.7441C204.081 72.7441 200.092 90.1242 205.106 114.117C203.2 123.237 179.818 127.766 179.818 127.766Z" fill="#8BD300"/>
<path d="M133.624 159.248H142.54C142.54 159.248 144.607 149.351 145.295 143.796C145.989 138.247 146.348 125.088 146.348 125.088C146.348 125.088 153.457 127.397 168.335 126.527C201.299 124.603 188.801 100.385 188.801 100.385C187.687 101.922 180.866 100.858 176.204 101.592C161.893 102.964 149.478 108.585 142.033 111.797C140.237 112.569 138.644 113.389 137.25 114.249C135.453 115.357 134.329 118.713 133.652 123.132C131.613 136.407 133.624 159.248 133.624 159.248Z" fill="#3D4F1A"/>
<path d="M133.872 170.672H140.165L141.377 163.288L142.038 159.248H134.219L134.098 163.288L133.872 170.672Z" fill="#F8AE9D"/>
<path d="M133.872 170.671H140.165L141.069 165.172L141.377 163.287H134.098L134.037 165.243L133.872 170.671Z" fill="url(#paint1_linear_0_1)"/>
<path d="M118.338 180.612H142.149C142.325 180.293 142.424 179.835 142.463 179.29C142.612 177.273 141.972 174.06 141.653 172.032C141.614 171.795 141.581 171.575 141.554 171.377C141.509 171.035 141.482 170.754 141.482 170.55C141.482 168.897 140.016 169.178 140.016 169.178C137.608 171.542 134.88 167.998 133.288 169.161C133.288 169.161 133.222 169.211 133.079 169.321C132.946 169.426 132.742 169.591 132.461 169.828C132.053 170.17 131.486 170.66 130.714 171.355C128.824 173.057 125.612 174.176 122.873 175.322C122.526 175.466 122.201 175.614 121.898 175.757C121.672 175.868 121.457 175.978 121.253 176.088C119.016 177.295 118.305 178.452 118.145 179.29C117.985 180.1 118.338 180.612 118.338 180.612Z" fill="#3D4F1A"/>
<path d="M118.338 180.613H142.149C142.325 180.293 142.424 179.836 142.463 179.29H118.145C117.985 180.1 118.338 180.613 118.338 180.613Z" fill="#3D4F1A"/>
<path d="M193.648 60.3749L185.733 89.5602L188.554 86.2824C187.511 86.8443 186.3 87.2708 184.961 87.5783C183.622 87.8807 182.16 88.059 180.639 88.1346C179.113 88.2158 177.522 88.1995 175.895 88.1346C174.267 88.0646 172.606 87.9456 170.919 87.8H170.909C168.418 87.5839 166.228 89.4468 166.014 91.9575C165.81 94.3496 167.497 96.4716 169.811 96.8496C171.551 97.1305 173.324 97.3951 175.139 97.6056C176.955 97.8165 178.818 97.9785 180.747 98.0214C182.674 98.0648 184.672 97.9892 186.734 97.6868C188.796 97.3844 190.933 96.8445 193.021 95.9373C194.36 95.3539 195.308 94.247 195.742 92.9618L195.843 92.6594L205.333 63.9496C206.399 60.7202 204.675 57.2375 201.472 56.1576C198.275 55.0829 194.815 56.8217 193.744 60.0506C193.712 60.1532 193.674 60.2774 193.648 60.3749Z" fill="#F8AE9D"/>
<path d="M149.152 159.276H158.069C158.069 159.276 160.135 149.379 160.824 143.824C161.518 138.275 161.877 125.116 161.877 125.116C161.877 125.116 168.985 127.425 183.863 126.554C216.827 124.631 204.329 100.412 204.329 100.412C203.216 101.949 194.862 104.071 190.2 104.804C175.89 106.176 165.006 108.606 157.562 111.824C155.765 112.596 154.173 113.417 152.778 114.276C150.982 115.384 149.858 118.74 149.18 123.159C147.136 136.434 149.152 159.276 149.152 159.276Z" fill="#3D4F1A"/>
<path d="M149.395 170.704H155.694L156.906 163.32L157.567 159.275H149.748L149.621 163.32L149.395 170.704Z" fill="#F8AE9D"/>
<path d="M149.395 170.704H155.694L156.591 165.205L156.906 163.32H149.621L149.56 165.277L149.395 170.704Z" fill="url(#paint2_linear_0_1)"/>
<path d="M133.861 180.645H157.672C157.848 180.326 157.947 179.868 157.986 179.323C158.135 177.306 157.495 174.093 157.176 172.066C157.138 171.828 157.104 171.608 157.077 171.41C157.033 171.068 157.005 170.787 157.005 170.583C157.005 168.93 155.539 169.211 155.539 169.211C153.131 171.575 150.404 168.032 148.811 169.195C148.811 169.195 148.745 169.244 148.602 169.354C148.469 169.459 148.265 169.624 147.984 169.861C147.576 170.203 147.009 170.694 146.238 171.387C144.348 173.09 141.135 174.209 138.396 175.355C138.049 175.498 137.724 175.647 137.421 175.79C137.195 175.901 136.98 176.011 136.776 176.121C134.539 177.328 133.828 178.485 133.668 179.323C133.514 180.127 133.861 180.645 133.861 180.645Z" fill="#3D4F1A"/>
<path d="M133.861 180.645H157.672C157.848 180.325 157.947 179.868 157.986 179.322H133.668C133.514 180.127 133.861 180.645 133.861 180.645Z" fill="#3D4F1A"/>
<path d="M100.42 100.1V102.573C100.42 103.998 101.295 105.149 102.383 105.149H238.762C239.844 105.149 240.725 103.998 240.725 102.573V100.1C240.725 98.6808 239.85 97.5234 238.762 97.5234H102.383C101.301 97.5304 100.42 98.6808 100.42 100.1Z" fill="#DCDCDC"/>
<path d="M107.394 108.665H230.152C230.702 108.665 231.149 108.301 231.149 107.85V103.557H106.402V107.85C106.402 108.301 106.848 108.665 107.394 108.665ZM236.786 181.267L219.395 109.173H225.506L242.892 181.267H236.786ZM117.66 181.267L135.051 109.173H128.945L111.554 181.267H117.66Z" fill="#DCDCDC"/>
<path d="M116.922 59.7613L123.314 86.7958L123.485 87.5065L123.915 89.3251C124.005 89.7077 124.221 90.0486 124.529 90.2927C124.837 90.5367 125.219 90.6695 125.612 90.6696H168.676C169.8 90.6696 170.638 89.6172 170.379 88.5206L163.386 58.9568C163.296 58.5742 163.08 58.2333 162.771 57.9892C162.463 57.7452 162.082 57.6124 161.689 57.6123H118.624C117.495 57.6174 116.663 58.6702 116.922 59.7613Z" fill="#8BD300"/>
<path d="M137.845 75.3011C138.049 77.164 139.724 78.6681 141.587 78.6681C143.449 78.6681 144.788 77.1584 144.584 75.3011C144.38 73.4386 142.705 71.9346 140.843 71.9346C138.98 71.9346 137.641 73.4386 137.845 75.3011Z" fill="#6F6F6F"/>
<path d="M159.976 57.6172L167.421 90.6745H168.677C169.801 90.6745 170.633 89.6221 170.374 88.5255L163.381 58.9617C163.291 58.5791 163.074 58.2381 162.766 57.9941C162.458 57.7501 162.077 57.6173 161.684 57.6172H159.976ZM147.532 90.4066L148.713 97.0151H144.811L143.63 90.4066H147.532Z" fill="#3D4F1A"/>
<path d="M154.138 96.4187L153.256 95.1788C153.1 94.9606 152.894 94.7829 152.656 94.6603C152.417 94.5376 152.153 94.4736 151.884 94.4736H140.053C139.746 94.4728 139.445 94.5567 139.182 94.7161C138.92 94.8755 138.706 95.1042 138.566 95.3771L137.97 96.5181C137.689 97.0524 138.081 97.6862 138.681 97.6862H153.483C154.133 97.6862 154.513 96.9479 154.138 96.4187Z" fill="#3D4F1A"/>
<path d="M178.369 52.9701C178.369 52.9701 190.294 51.8085 189.456 44.3927C188.618 36.9769 189.592 31.8324 181.943 32.2613C174.295 32.6897 173.135 35.6857 172.814 38.2285C172.492 40.7719 175.247 53.0807 178.369 52.9701Z" fill="#F8AE9D"/>
<path d="M168.333 31.708C168.333 31.708 169.563 38.5904 171.906 38.8415C174.249 39.0921 173.409 36.1983 173.409 36.1983L172.777 32.9339L168.333 31.708Z" fill="#002C54"/>
<path d="M188.601 29.4994C188.288 26.8926 185.548 26.16 185.548 26.16C182.8 25.179 177.376 26.2304 171.848 28.0196C170.546 28.4392 168.813 27.7872 167.951 28.5157C166.908 29.3963 168.352 32.8333 168.352 32.8333C171.153 39.2238 178.963 36.3221 181.299 35.2791C182.034 36.9222 182.183 39.2882 183.722 40.377C184.603 40.9948 186.014 40.8819 187.435 40.5048C187.641 40.8226 188.337 41.0602 188.514 41.5086C189.115 43.0094 189.276 45.4282 189.437 47.2874L190.088 46.8888C190.127 46.3727 195.585 29.0626 188.601 29.4994Z" fill="#002C54"/>
<path d="M80.1488 30.7998H65.6667C60.512 30.7998 56.3334 34.9785 56.3334 40.1331V46.5302C56.3334 51.6849 60.512 55.8635 65.6667 55.8635H80.1488C85.3034 55.8635 89.4821 51.6849 89.4821 46.5302V40.1331C89.4821 34.9785 85.3034 30.7998 80.1488 30.7998Z" fill="#8BD300"/>
<path d="M75.4179 52.3099L75.083 51.9749C73.8072 50.6992 71.7389 50.6992 70.4632 51.9749L70.1283 52.3099C68.8525 53.5856 68.8525 55.6539 70.1283 56.9296L70.4632 57.2646C71.7389 58.5403 73.8072 58.5403 75.083 57.2646L75.4179 56.9296C76.6936 55.6539 76.6936 53.5856 75.4179 52.3099Z" fill="#8BD300"/>
<path fill-rule="evenodd" clip-rule="evenodd" d="M76.2834 36.1904C79.1832 36.1904 81.1274 38.9008 81.1274 41.425C81.1274 46.5486 73.055 50.7434 72.9075 50.7434C72.7605 50.7434 64.6881 46.5486 64.6881 41.425C64.6881 38.9008 66.6322 36.1904 69.5321 36.1904C71.1897 36.1904 72.2784 37.0136 72.9075 37.7468C73.537 37.0136 74.6258 36.1904 76.2834 36.1904Z" fill="#6F6F6F"/>
<defs>
<linearGradient id="paint0_linear_0_1" x1="192.286" y1="191.079" x2="192.274" y2="161.412" gradientUnits="userSpaceOnUse">
<stop stop-color="#989898"/>
<stop offset="1" stop-color="#A2A2A2"/>
</linearGradient>
<linearGradient id="paint1_linear_0_1" x1="137.465" y1="174.811" x2="137.689" y2="155.254" gradientUnits="userSpaceOnUse">
<stop stop-color="white"/>
<stop offset="1" stop-color="#EEEEEE"/>
</linearGradient>
<linearGradient id="paint2_linear_0_1" x1="152.99" y1="174.844" x2="153.214" y2="155.288" gradientUnits="userSpaceOnUse">
<stop stop-color="white"/>
<stop offset="1" stop-color="#EEEEEE"/>
</linearGradient>
</defs>
</svg>
