<svg width="125" height="42" viewBox="0 0 125 42" fill="none" xmlns="http://www.w3.org/2000/svg">
<path d="M17.0312 19.25C16.6562 16.75 14.7344 15.2344 12.0938 15.2188C8.57812 15.2344 6.25 17.9219 6.25 22.6875C6.25 27.5625 8.60938 30.1406 12.0625 30.1562C14.6406 30.1406 16.5781 28.7344 17.0312 26.2812L21.7812 26.3125C21.2656 30.5 17.75 34.3125 12 34.3125C5.95312 34.3125 1.46875 30.0469 1.46875 22.6875C1.46875 15.2969 6.03125 11.0625 12 11.0625C17.2188 11.0625 21.1562 14.0469 21.7812 19.25H17.0312ZM29.5938 24.1875V34H24.9688V11.375H29.4688V20H29.6562C30.4375 18.0156 32.1406 16.8125 34.7188 16.8125C38.2656 16.8125 40.5938 19.2031 40.5938 23.1875V34H35.9688V24C35.9688 21.8906 34.8438 20.6562 32.9062 20.6562C30.9531 20.6562 29.5938 21.9531 29.5938 24.1875ZM51.8438 34.3438C46.6406 34.3281 43.4531 30.9688 43.4688 25.5938C43.4531 20.3594 46.6875 16.8125 51.6562 16.8125C56.1094 16.8125 59.625 19.625 59.625 25.4062V26.7188H48.0312C48.0312 29.2812 49.5469 30.8594 51.9375 30.875C53.5156 30.8594 54.6406 30.1719 55.0938 29.1562H59.5C58.8438 32.2969 56.0312 34.3281 51.8438 34.3438ZM48.0312 23.8125H55.25C55.2344 21.75 53.8125 20.2656 51.75 20.2812C49.625 20.2656 48.125 21.8594 48.0312 23.8125ZM70.1562 34.3438C64.9531 34.3281 61.8281 30.7344 61.8438 25.5625C61.8281 20.375 65.0156 16.8125 70.1562 16.8125C74.5312 16.8125 77.5 19.3594 77.6875 23.25H73.3438C73.0625 21.5781 71.9688 20.4219 70.2188 20.4062C68 20.4219 66.5312 22.2812 66.5312 25.5C66.5312 28.7812 67.9688 30.6562 70.2188 30.6562C71.8438 30.6562 73.0469 29.6406 73.3438 27.8438H77.6875C77.4844 31.6875 74.6562 34.3281 70.1562 34.3438ZM80.5625 34V11.375H85.1875V23.5312H85.4375L90.9375 17.0312H96.25L89.9219 24.375L96.5938 34H91.1562L86.4844 27.0938L85.1875 28.5625V34H80.5625ZM103.188 11.375V34H98.5V11.375H103.188ZM111.531 24.1875V34H106.906V17.0312H111.312V20H111.5C112.266 18.0469 114.078 16.8125 116.594 16.8125C120.141 16.8125 122.453 19.2344 122.438 23.1875V34H117.844V24C117.828 21.9062 116.703 20.6562 114.781 20.6562C112.859 20.6562 111.531 21.9531 111.531 24.1875Z" fill="#00C537"/>
<g clip-path="url(#clip0_337_3620)">
<path d="M105.358 2.20234L100.585 6.97565L98.6438 5.03391C98.5291 4.91617 98.3924 4.82216 98.2414 4.75729C98.0889 4.69178 97.9249 4.6573 97.7589 4.65586C97.5929 4.65442 97.4283 4.68604 97.2747 4.74889C97.1211 4.81174 96.9815 4.90456 96.8642 5.02193C96.7468 5.13929 96.654 5.27886 96.5911 5.43248C96.5283 5.5861 96.4967 5.7507 96.4981 5.91667C96.4995 6.08265 96.534 6.24667 96.5995 6.39918C96.6644 6.55019 96.7584 6.68691 96.8762 6.80153L99.6664 9.59129C99.6664 9.59131 99.6665 9.59134 99.6665 9.59136C99.7872 9.71208 99.9305 9.80783 100.088 9.87317C100.246 9.93852 100.415 9.97216 100.586 9.97216C100.757 9.97216 100.926 9.93852 101.083 9.87317C101.241 9.80783 101.384 9.71206 101.505 9.59133C101.505 9.59132 101.505 9.5913 101.505 9.59129L107.127 3.96983L107.127 3.96978C107.361 3.73537 107.493 3.41748 107.493 3.08603C107.493 2.75457 107.361 2.43669 107.127 2.20228C107.011 2.08615 106.873 1.99402 106.721 1.93116C106.569 1.8683 106.407 1.83594 106.243 1.83594C106.078 1.83594 105.916 1.8683 105.764 1.93116C105.612 1.99402 105.475 2.08613 105.358 2.20224C105.358 2.20227 105.358 2.2023 105.358 2.20234Z" fill="#00C537" stroke="#00C537"/>
</g>
<defs>
<clipPath id="clip0_337_3620">
<rect width="12" height="12" fill="white" transform="translate(96)"/>
</clipPath>
</defs>
</svg>